<svg width="22" height="27" viewBox="0 0 22 27" fill="none" xmlns="http://www.w3.org/2000/svg">
<path d="M10.4461 10.8153C10.0051 10.406 9.46878 10.2103 9.05559 10.1573L8.54947 9.35595C4.01691 9.51341 4.1022 12.8988 4.71142 14.5718C4.08158 15.629 4.73953 16.3151 5.14724 16.5259C5.06851 17.4482 5.68616 18.2786 6.00483 18.5785C6.00483 18.7191 6.00483 19.1915 6.00483 19.9563C6.00483 20.9123 4.48648 21.3059 2.58853 22.3463C1.07018 23.1786 0.915534 24.5676 1.02801 25.158H14.8619C15.3004 24.6405 14.9642 23.7327 14.0626 22.8806M10.4461 10.8153C11.1355 11.4551 11.5921 12.6169 10.9816 14.5718C11.2019 14.9795 11.4147 15.9411 10.5036 16.5259C10.5177 16.9008 10.3687 17.8362 9.66012 18.5785V19.9563C9.68355 20.3124 9.86769 20.7191 11.6986 21.4325C12.6808 21.8151 13.4869 22.3365 14.0626 22.8806M10.4461 10.8153C10.9176 10.0926 12.3264 8.65537 14.1901 8.68851L14.7285 9.58934C15.7363 9.77571 17.5117 10.7946 16.5509 13.379C16.7717 13.8035 16.9961 14.7871 16.1263 15.3255C16.1125 15.7224 15.9317 16.624 15.3187 17.0547V18.5785C15.4992 18.8878 16.3268 19.6583 18.1938 20.2656C20.0608 20.873 20.3776 22.262 20.3026 22.8806H14.0626M7.7487 1V6.34177M7.7487 6.34177L5.62527 4.21833M7.7487 6.34177L9.87214 4.21833" stroke="url(#paint0_linear_488_94)" stroke-width="2" stroke-linecap="round" stroke-linejoin="round"/>
<defs>
<linearGradient id="paint0_linear_488_94" x1="1.17964" y1="13.8699" x2="20.0069" y2="13.8663" gradientUnits="userSpaceOnUse">
<stop stop-color="#A86307"/>
<stop offset="0.5" stop-color="#EDB838"/>
<stop offset="1" stop-color="#A86307"/>
</linearGradient>
</defs>
</svg>
