<svg width="20" height="24" viewBox="0 0 20 24" fill="none" xmlns="http://www.w3.org/2000/svg">
<path d="M11.6813 1H3.13625C2.56968 1 2.02632 1.22507 1.62569 1.62569C1.22507 2.02632 1 2.56968 1 3.13625V20.2263C1 20.7928 1.22507 21.3362 1.62569 21.7368C2.02632 22.1374 2.56968 22.3625 3.13625 22.3625H15.9538C16.5203 22.3625 17.0637 22.1374 17.4643 21.7368C17.8649 21.3362 18.09 20.7928 18.09 20.2263V7.40875M11.6813 1L18.09 7.40875M11.6813 1L11.6813 7.40875L18.09 7.40875M13.8175 12.7494H5.2725M13.8175 17.0219H5.2725M7.40875 8.47688H5.2725" stroke="black" stroke-width="2" stroke-linecap="round" stroke-linejoin="round"/>
<path d="M11.6813 1H3.13625C2.56968 1 2.02632 1.22507 1.62569 1.62569C1.22507 2.02632 1 2.56968 1 3.13625V20.2263C1 20.7928 1.22507 21.3362 1.62569 21.7368C2.02632 22.1374 2.56968 22.3625 3.13625 22.3625H15.9538C16.5203 22.3625 17.0637 22.1374 17.4643 21.7368C17.8649 21.3362 18.09 20.7928 18.09 20.2263V7.40875M11.6813 1L18.09 7.40875M11.6813 1L11.6813 7.40875L18.09 7.40875M13.8175 12.7494H5.2725M13.8175 17.0219H5.2725M7.40875 8.47688H5.2725" stroke="url(#paint0_linear_488_136)" stroke-width="2" stroke-linecap="round" stroke-linejoin="round"/>
<defs>
<linearGradient id="paint0_linear_488_136" x1="1.15982" y1="11.9864" x2="17.8195" y2="11.9834" gradientUnits="userSpaceOnUse">
<stop stop-color="#A86307"/>
<stop offset="0.5" stop-color="#EDB838"/>
<stop offset="1" stop-color="#A86307"/>
</linearGradient>
</defs>
</svg>
