<svg width="44" height="43" viewBox="0 0 44 43" fill="none" xmlns="http://www.w3.org/2000/svg">
<path d="M35.2711 9.49584C31.2651 5.8637 20.3205 0.674546 8.59082 8.97507M8.59082 8.97507L9.37668 4.12241M8.59082 8.97507L13.3998 10.0804M8.59082 33.722C12.5969 37.3542 23.5414 42.5433 35.2711 34.2428M35.2711 34.2428L34.4852 39.0955M35.2711 34.2428L30.4621 33.1375M15.7649 29.1207C15.7649 27.2146 17.5197 23.2511 21.6345 23.2511C25.7493 23.2511 27.8672 27.0634 27.8672 29.1207M25.3626 17.4364C25.3626 19.4284 23.7478 21.0433 21.7558 21.0433C19.7638 21.0433 18.1489 19.4284 18.1489 17.4364C18.1489 15.4444 19.7638 13.8296 21.7558 13.8296C23.7478 13.8296 25.3626 15.4444 25.3626 17.4364Z" stroke="#FF0000" stroke-width="2" stroke-linecap="round" stroke-linejoin="round"/>
<path d="M35.2711 9.49584C31.2651 5.8637 20.3205 0.674546 8.59082 8.97507M8.59082 8.97507L9.37668 4.12241M8.59082 8.97507L13.3998 10.0804M8.59082 33.722C12.5969 37.3542 23.5414 42.5433 35.2711 34.2428M35.2711 34.2428L34.4852 39.0955M35.2711 34.2428L30.4621 33.1375M15.7649 29.1207C15.7649 27.2146 17.5197 23.2511 21.6345 23.2511C25.7493 23.2511 27.8672 27.0634 27.8672 29.1207M25.3626 17.4364C25.3626 19.4284 23.7478 21.0433 21.7558 21.0433C19.7638 21.0433 18.1489 19.4284 18.1489 17.4364C18.1489 15.4444 19.7638 13.8296 21.7558 13.8296C23.7478 13.8296 25.3626 15.4444 25.3626 17.4364Z" stroke="url(#paint0_linear_488_154)" stroke-width="2" stroke-linecap="round" stroke-linejoin="round"/>
<defs>
<linearGradient id="paint0_linear_488_154" x1="8.84032" y1="22.1086" x2="34.8488" y2="22.104" gradientUnits="userSpaceOnUse">
<stop stop-color="#A86307"/>
<stop offset="0.5" stop-color="#EDB838"/>
<stop offset="1" stop-color="#A86307"/>
</linearGradient>
</defs>
</svg>
