<svg width="29" height="37" viewBox="0 0 29 37" fill="none" xmlns="http://www.w3.org/2000/svg">
<path d="M27.6805 6.37359C23.6745 2.74145 12.73 -2.44771 1.00024 5.85281M1.00024 5.85281L1.7861 1.00015M1.00024 5.85281L5.80927 6.95815M1.00024 30.5998C5.00629 34.2319 15.9508 39.4211 27.6805 31.1206M27.6805 31.1206L26.8947 35.9732M27.6805 31.1206L22.8715 30.0152M8.17432 25.9985C8.17432 24.0924 9.92916 20.1288 14.0439 20.1288C18.1587 20.1288 20.2766 23.9411 20.2766 25.9985M17.7721 14.3142C17.7721 16.3062 16.1572 17.921 14.1652 17.921C12.1732 17.921 10.5584 16.3062 10.5584 14.3142C10.5584 12.3222 12.1732 10.7073 14.1652 10.7073C16.1572 10.7073 17.7721 12.3222 17.7721 14.3142Z" stroke="#FF0000" stroke-width="2" stroke-linecap="round" stroke-linejoin="round"/>
<path d="M27.6805 6.37359C23.6745 2.74145 12.73 -2.44771 1.00024 5.85281M1.00024 5.85281L1.7861 1.00015M1.00024 5.85281L5.80927 6.95815M1.00024 30.5998C5.00629 34.2319 15.9508 39.4211 27.6805 31.1206M27.6805 31.1206L26.8947 35.9732M27.6805 31.1206L22.8715 30.0152M8.17432 25.9985C8.17432 24.0924 9.92916 20.1288 14.0439 20.1288C18.1587 20.1288 20.2766 23.9411 20.2766 25.9985M17.7721 14.3142C17.7721 16.3062 16.1572 17.921 14.1652 17.921C12.1732 17.921 10.5584 16.3062 10.5584 14.3142C10.5584 12.3222 12.1732 10.7073 14.1652 10.7073C16.1572 10.7073 17.7721 12.3222 17.7721 14.3142Z" stroke="url(#paint0_linear_488_155)" stroke-width="2" stroke-linecap="round" stroke-linejoin="round"/>
<defs>
<linearGradient id="paint0_linear_488_155" x1="1.24975" y1="18.9863" x2="27.2582" y2="18.9817" gradientUnits="userSpaceOnUse">
<stop stop-color="#A86307"/>
<stop offset="0.5" stop-color="#EDB838"/>
<stop offset="1" stop-color="#A86307"/>
</linearGradient>
</defs>
</svg>
