<svg width="24" height="20" viewBox="0 0 24 20" fill="none" xmlns="http://www.w3.org/2000/svg">
<path d="M23 1.99763V7.99763M23 7.99763H17M23 7.99763L18.36 3.63763C17.2853 2.56235 15.9556 1.77684 14.4952 1.35441C13.0348 0.931975 11.4911 0.886385 10.0083 1.22189C8.52547 1.5574 7.1518 2.26307 6.01547 3.27305C4.87913 4.28304 4.01717 5.56442 3.51 6.99763M1 17.9976V11.9976M1 11.9976H7M1 11.9976L5.64 16.3576C6.71475 17.4329 8.04437 18.2184 9.50481 18.6409C10.9652 19.0633 12.5089 19.1089 13.9917 18.7734C15.4745 18.4379 16.8482 17.7322 17.9845 16.7222C19.1209 15.7122 19.9828 14.4308 20.49 12.9976" stroke="url(#paint0_linear_488_101)" stroke-width="2" stroke-linecap="round" stroke-linejoin="round"/>
<defs>
<linearGradient id="paint0_linear_488_101" x1="1.20574" y1="10.2547" x2="22.6518" y2="10.2487" gradientUnits="userSpaceOnUse">
<stop stop-color="#A86307"/>
<stop offset="0.5" stop-color="#EDB838"/>
<stop offset="1" stop-color="#A86307"/>
</linearGradient>
</defs>
</svg>
