<svg width="20" height="18" viewBox="0 0 20 18" fill="none" xmlns="http://www.w3.org/2000/svg">
<path d="M4 2.001C3.99974 2.53143 3.78877 3.04004 3.41351 3.41492C3.03825 3.78981 2.52943 4.00027 1.999 4C1.46857 3.99974 0.959965 3.78877 0.585079 3.41351C0.210194 3.03825 -0.000264966 2.52943 2.50361e-07 1.999C0.000265467 1.46857 0.211233 0.959965 0.586494 0.585079C0.961754 0.210194 1.47057 -0.000264966 2.001 2.50361e-07C2.53143 0.000265467 3.04004 0.211233 3.41492 0.586494C3.78981 0.961754 4.00027 1.47057 4 2.001ZM4.06 5.481H0.0600002V18.001H4.06V5.481ZM10.38 5.481H6.4V18.001H10.34V11.431C10.34 7.771 15.11 7.431 15.11 11.431V18.001H19.06V10.071C19.06 3.901 12 4.131 10.34 7.161L10.38 5.481Z" fill="url(#paint0_linear_488_59)"/>
<defs>
<linearGradient id="paint0_linear_488_59" x1="0" y1="9.0005" x2="19.06" y2="9.0005" gradientUnits="userSpaceOnUse">
<stop stop-color="#A86307"/>
<stop offset="0.5" stop-color="#EDB838"/>
<stop offset="1" stop-color="#A86307"/>
</linearGradient>
</defs>
</svg>
