<svg width="100" height="100" viewBox="0 0 16 16" fill="#a86307" xmlns="http://www.w3.org/2000/svg"><path d="M1 12.005q1.563-.823 2.424-1.963.893-1.17 1.02-2.754a2.2 2.2 0 0 1-.765.126q-1.115 0-1.85-.696-.733-.73-.733-1.868 0-1.299.765-2.058Q2.626 2 3.806 2q1.53 0 2.424 1.203.893 1.172.893 3.261 0 2.47-1.308 4.401Q4.54 12.797 2.052 14zm7.877 0q1.563-.823 2.424-1.963.893-1.17 1.02-2.754a2.2 2.2 0 0 1-.765.126q-1.115 0-1.85-.696-.733-.73-.733-1.868 0-1.299.765-2.058Q10.503 2 11.683 2q1.53 0 2.424 1.203Q15 4.375 15 6.464q0 2.47-1.307 4.401Q12.418 12.797 9.929 14z"/></svg>