<svg width="25" height="20" viewBox="0 0 25 20" fill="none" xmlns="http://www.w3.org/2000/svg">
<path fill-rule="evenodd" clip-rule="evenodd" d="M12.5 0C13.5687 0 14.665 0.0275001 15.7275 0.0725001L16.9825 0.1325L18.1838 0.20375L19.3087 0.28L20.3362 0.36C21.4513 0.445347 22.5006 0.921184 23.2994 1.7038C24.0983 2.48642 24.5955 3.52568 24.7037 4.63875L24.7537 5.17L24.8475 6.3075C24.935 7.48625 25 8.77125 25 10C25 11.2288 24.935 12.5138 24.8475 13.6925L24.7537 14.83C24.7375 15.0125 24.7212 15.1888 24.7037 15.3612C24.5955 16.4745 24.098 17.5139 23.2989 18.2966C22.4998 19.0792 21.4503 19.5549 20.335 19.64L19.31 19.7188L18.185 19.7962L16.9825 19.8675L15.7275 19.9275C14.6523 19.9742 13.5762 19.9984 12.5 20C11.4238 19.9984 10.3477 19.9742 9.2725 19.9275L8.0175 19.8675L6.81625 19.7962L5.69125 19.7188L4.66375 19.64C3.54869 19.5547 2.49944 19.0788 1.70059 18.2962C0.901742 17.5136 0.404468 16.4743 0.29625 15.3612L0.24625 14.83L0.1525 13.6925C0.0569219 12.4639 0.00605502 11.2323 0 10C0 8.77125 0.065 7.48625 0.1525 6.3075L0.24625 5.17C0.2625 4.9875 0.27875 4.81125 0.29625 4.63875C0.404426 3.52587 0.901521 2.48677 1.70011 1.70418C2.49871 0.921589 3.54766 0.445628 4.6625 0.36L5.68875 0.28L6.81375 0.20375L8.01625 0.1325L9.27125 0.0725001C10.3469 0.0257912 11.4234 0.00161911 12.5 0ZM10 6.96875V13.0312C10 13.6088 10.625 13.9688 11.125 13.6812L16.375 10.65C16.4892 10.5842 16.5841 10.4895 16.6501 10.3754C16.7161 10.2613 16.7508 10.1318 16.7508 10C16.7508 9.86818 16.7161 9.7387 16.6501 9.62458C16.5841 9.51047 16.4892 9.41576 16.375 9.35L11.125 6.32C11.0109 6.25415 10.8816 6.2195 10.7499 6.21952C10.6182 6.21954 10.4888 6.25424 10.3748 6.32012C10.2608 6.386 10.1661 6.48075 10.1003 6.59483C10.0345 6.70891 9.99991 6.83831 10 6.97V6.96875Z" fill="url(#paint0_linear_488_62)"/>
<defs>
<linearGradient id="paint0_linear_488_62" x1="0" y1="10" x2="25" y2="10" gradientUnits="userSpaceOnUse">
<stop stop-color="#A86307"/>
<stop offset="0.5" stop-color="#EDB838"/>
<stop offset="1" stop-color="#A86307"/>
</linearGradient>
</defs>
</svg>
