<svg width="128" height="34" viewBox="0 0 128 34" fill="none" xmlns="http://www.w3.org/2000/svg">
<path d="M20.2065 15.8091C20.1727 12.0535 23.2824 10.2263 23.4246 10.1413C21.6634 7.57421 18.9336 7.22346 17.9744 7.1955C15.6817 6.95429 13.4578 8.56701 12.2899 8.56701C11.0987 8.56701 9.3002 7.2188 7.36186 7.25842C4.86754 7.29687 2.53406 8.74063 1.25427 10.9826C-1.38692 15.5539 0.582897 22.2717 3.11335 25.9667C4.37916 27.7775 5.85827 29.7969 7.79429 29.7258C9.68834 29.6489 10.3958 28.5198 12.6815 28.5198C14.9462 28.5198 15.6106 29.7258 17.5851 29.6804C19.6178 29.6489 20.8976 27.8626 22.1192 26.0366C23.5819 23.9636 24.1694 21.9198 24.1927 21.8149C24.1461 21.7986 20.2461 20.3094 20.2065 15.8091ZM16.4766 4.76476C17.4953 3.49113 18.1923 1.75838 17.9989 0C16.5244 0.0652547 14.6805 1.0196 13.6186 2.26527C12.6792 3.36295 11.84 5.16211 12.0568 6.85407C13.7131 6.97759 15.4136 6.01858 16.4766 4.76476Z" fill="black"/>
<path d="M47.6406 29.466H44.9936L43.5436 24.911H38.5037L37.1225 29.466H34.5454L39.5399 13.9587H42.624L47.6406 29.466ZM43.1065 22.9999L41.7953 18.9506C41.6566 18.537 41.3955 17.5628 41.0132 16.0293H40.9665C40.8127 16.6889 40.5667 17.663 40.2299 18.9506L38.9408 22.9999H43.1065ZM60.4596 23.7375C60.4596 25.6392 59.9432 27.1424 58.9093 28.2459C57.9839 29.2283 56.8335 29.7188 55.4616 29.7188C53.9801 29.7188 52.9148 29.191 52.2679 28.1329V34H49.7829V21.9593C49.7829 20.7649 49.7515 19.5403 49.6908 18.2841H51.8763L52.015 20.0565H52.0616C52.8903 18.7211 54.148 18.0534 55.8357 18.0534C57.1552 18.0534 58.2566 18.5743 59.1378 19.6172C60.0178 20.6624 60.4596 22.0351 60.4596 23.7375ZM57.9279 23.8284C57.9279 22.7401 57.6832 21.8428 57.1913 21.1355C56.654 20.4002 55.9325 20.032 55.028 20.032C54.4149 20.032 53.8578 20.2371 53.3601 20.6414C52.8612 21.0493 52.5348 21.5818 52.3821 22.2413C52.314 22.488 52.2752 22.7418 52.2668 22.9976V24.8632C52.2668 25.6754 52.5162 26.3617 53.0151 26.9234C53.5139 27.4827 54.162 27.7635 54.9592 27.7635C55.8952 27.7635 56.6237 27.4011 57.1447 26.6822C57.6668 25.9609 57.9279 25.01 57.9279 23.8284ZM73.324 23.7375C73.324 25.6392 72.8076 27.1424 71.7738 28.2459C70.8471 29.2283 69.6979 29.7188 68.3248 29.7188C66.8434 29.7188 65.7781 29.191 65.1312 28.1329V34H62.6462V21.9593C62.6462 20.7649 62.6147 19.5403 62.5541 18.2841H64.7395L64.8782 20.0565H64.9249C65.7524 18.7211 67.0101 18.0534 68.699 18.0534C70.0172 18.0534 71.1187 18.5743 72.0022 19.6172C72.8811 20.6624 73.324 22.0351 73.324 23.7375ZM70.7912 23.8284C70.7912 22.7401 70.5452 21.8428 70.0534 21.1355C69.516 20.4002 68.7969 20.032 67.8924 20.032C67.2793 20.032 66.7222 20.2371 66.2221 20.6414C65.7233 21.0493 65.3981 21.5818 65.2454 22.2413C65.1696 22.549 65.1288 22.7995 65.1288 22.9976V24.8632C65.1288 25.6754 65.3794 26.3617 65.876 26.9234C66.3748 27.4815 67.0229 27.7635 67.8225 27.7635C68.7596 27.7635 69.4881 27.4011 70.0079 26.6822C70.5301 25.9609 70.7912 25.01 70.7912 23.8284ZM87.7071 25.116C87.7071 26.4363 87.2455 27.5095 86.3282 28.338C85.3189 29.2422 83.9097 29.6955 82.1031 29.6955C80.434 29.6955 79.0959 29.3739 78.0865 28.7295L78.6611 26.6588C79.7509 27.3044 80.948 27.626 82.2511 27.626C83.1882 27.626 83.9167 27.4139 84.4365 26.9933C84.9575 26.5715 85.2209 26.0075 85.2209 25.3036C85.2209 24.6732 85.003 24.1454 84.5752 23.7154C84.1451 23.2866 83.4341 22.8869 82.4352 22.5198C79.7195 21.5072 78.3604 20.0262 78.3604 18.0779C78.3604 16.8054 78.8406 15.7636 79.7987 14.9491C80.7568 14.1358 82.0273 13.7291 83.6078 13.7291C85.0193 13.7291 86.1954 13.975 87.129 14.4655L86.5054 16.4908C85.6266 16.0153 84.6347 15.7776 83.525 15.7776C82.6485 15.7776 81.9608 15.9932 81.469 16.422C81.0552 16.8054 80.8454 17.2727 80.8454 17.8273C80.8454 18.4391 81.0843 18.9471 81.5599 19.3457C81.9725 19.7127 82.7255 20.1124 83.8141 20.5412C85.1498 21.0796 86.1313 21.7065 86.7595 22.4266C87.3924 23.1467 87.7071 24.0452 87.7071 25.116ZM95.9442 20.1485H93.2051V25.5775C93.2051 26.9583 93.6877 27.647 94.6551 27.647C95.0992 27.647 95.4675 27.6097 95.7589 27.5316L95.8277 29.4182C95.3381 29.6011 94.6935 29.6932 93.8951 29.6932C92.9137 29.6932 92.1468 29.3937 91.5931 28.7948C91.0418 28.1958 90.7644 27.1925 90.7644 25.7802V20.1439H89.1326V18.2794H90.7644V16.2321L93.2051 15.4956V18.2794H95.9442V20.1485ZM108.278 23.783C108.278 25.5017 107.786 26.9129 106.805 28.0164C105.778 29.1525 104.412 29.7188 102.709 29.7188C101.066 29.7188 99.7591 29.1746 98.7847 28.0875C97.8103 26.9979 97.3231 25.6253 97.3231 23.9694C97.3231 22.2367 97.8266 20.8174 98.8302 19.7139C99.836 18.6092 101.19 18.0569 102.893 18.0569C104.534 18.0569 105.853 18.6022 106.85 19.6906C107.804 20.7463 108.278 22.1097 108.278 23.783ZM105.702 23.8401C105.702 22.8158 105.481 21.9372 105.037 21.2019C104.516 20.314 103.77 19.87 102.804 19.87C101.808 19.87 101.045 20.314 100.525 21.2019C100.08 21.9372 99.8582 22.831 99.8582 23.8867C99.8582 24.9121 100.08 25.7931 100.525 26.526C101.062 27.4139 101.812 27.8579 102.783 27.8579C103.733 27.8579 104.477 27.4046 105.016 26.5039C105.473 25.7511 105.702 24.8667 105.702 23.8401ZM116.359 20.469C116.101 20.4223 115.839 20.3993 115.576 20.4002C114.702 20.4002 114.026 20.7288 113.55 21.3907C113.138 21.9733 112.93 22.7098 112.93 23.5989V29.466H110.445V21.8055C110.447 20.6317 110.423 19.458 110.373 18.2853H112.537L112.628 20.4247H112.697C112.96 19.6894 113.373 19.0963 113.939 18.6523C114.458 18.2644 115.088 18.0543 115.736 18.0534C115.965 18.0534 116.173 18.0697 116.357 18.0988L116.359 20.469ZM127.473 23.346C127.479 23.7237 127.449 24.101 127.382 24.4728H119.927C119.955 25.5775 120.316 26.4235 121.009 27.0061C121.637 27.5258 122.449 27.7868 123.447 27.7868C124.551 27.7868 125.558 27.612 126.464 27.259L126.853 28.9824C125.794 29.4438 124.545 29.6734 123.103 29.6734C121.369 29.6734 120.007 29.163 119.017 28.1446C118.028 27.125 117.533 25.7546 117.533 24.0382C117.533 22.3532 117.993 20.9491 118.915 19.8292C119.88 18.6337 121.185 18.0359 122.826 18.0359C124.438 18.0359 125.658 18.6337 126.487 19.8292C127.143 20.7766 127.473 21.9512 127.473 23.346ZM125.103 22.7016C125.121 21.964 124.958 21.3289 124.621 20.7917C124.191 20.0996 123.529 19.7547 122.642 19.7547C121.829 19.7547 121.167 20.0914 120.664 20.7673C120.25 21.3045 120.004 21.95 119.928 22.6993L125.103 22.7016Z" fill="black"/>
<path d="M37.7868 8.4761C37.0956 8.4761 36.4977 8.44231 36 8.38521V0.887912C36.6961 0.780411 37.3995 0.727424 38.1039 0.729436C40.9537 0.729436 42.2661 2.13125 42.2661 4.41633C42.2661 7.05215 40.7159 8.4761 37.7868 8.4761ZM38.2041 1.69078C37.8195 1.69078 37.4919 1.71408 37.2203 1.77002V7.46931C37.3672 7.49262 37.6493 7.50311 38.0456 7.50311C39.9128 7.50311 40.9758 6.44039 40.9758 4.45012C40.9758 2.67543 40.0142 1.69078 38.2041 1.69078ZM46.3561 8.5332C44.7499 8.5332 43.7091 7.33414 43.7091 5.70627C43.7091 4.00965 44.7721 2.80011 46.447 2.80011C48.0299 2.80011 49.094 3.94206 49.094 5.61655C49.094 7.33414 47.9972 8.5332 46.3561 8.5332ZM46.4027 3.6927C45.5204 3.6927 44.9551 4.5177 44.9551 5.67131C44.9551 6.80278 45.532 7.62779 46.3911 7.62779C47.2501 7.62779 47.827 6.74569 47.827 5.64801C47.827 4.52936 47.2617 3.6927 46.4027 3.6927ZM58.2531 2.91314L56.5339 8.40852H55.4137L54.7016 6.02206C54.5245 5.43832 54.3771 4.84599 54.2598 4.24736H54.2365C54.1468 4.84631 53.9766 5.44642 53.7959 6.02206L53.0383 8.40852H51.9065L50.2887 2.91314H51.5441L52.1665 5.52566C52.3133 6.14791 52.4369 6.7352 52.5395 7.28986H52.5628C52.6525 6.82725 52.7994 6.24928 53.015 5.53731L53.7959 2.9143H54.7913L55.5385 5.48138C55.7191 6.10363 55.866 6.71422 55.9802 7.29103H56.0129C56.0921 6.72588 56.2168 6.12577 56.3858 5.48138L57.0537 2.9143L58.2531 2.91314ZM64.5821 8.40852H63.3606V5.25299C63.3606 4.28116 62.9876 3.79408 62.2522 3.79408C61.5283 3.79408 61.0306 4.41633 61.0306 5.13996V8.40852H59.8091V4.48391C59.8091 3.998 59.7975 3.47712 59.7637 2.91197H60.8383L60.8954 3.76028H60.9292C61.2579 3.17299 61.9246 2.80011 62.6718 2.80011C63.8257 2.80011 64.5833 3.68221 64.5833 5.11782L64.5821 8.40852ZM67.9506 8.40852H66.7279V0.39151H67.9506V8.40852ZM72.4043 8.5332C70.7993 8.5332 69.7573 7.33414 69.7573 5.70627C69.7573 4.00965 70.8203 2.80011 72.494 2.80011C74.078 2.80011 75.141 3.94206 75.141 5.61655C75.1422 7.33414 74.0442 8.5332 72.4043 8.5332ZM72.4497 3.6927C71.5674 3.6927 71.0021 4.5177 71.0021 5.67131C71.0021 6.80278 71.5802 7.62779 72.4369 7.62779C73.2971 7.62779 73.8729 6.74569 73.8729 5.64801C73.8741 4.52936 73.3099 3.6927 72.4497 3.6927ZM79.9572 8.40852L79.8686 7.77578H79.836C79.463 8.285 78.9187 8.5332 78.2286 8.5332C77.2437 8.5332 76.5444 7.84336 76.5444 6.91582C76.5444 5.55945 77.7205 4.85796 79.7567 4.85796V4.75658C79.7567 4.03296 79.3732 3.67056 78.6156 3.67056C78.0736 3.67056 77.5981 3.80689 77.1796 4.0784L76.9314 3.27553C77.4395 2.95858 78.0736 2.80011 78.8184 2.80011C80.2544 2.80011 80.9794 3.55753 80.9794 5.07353V7.0976C80.9794 7.65226 81.0039 8.08224 81.0586 8.40968L79.9572 8.40852ZM79.7893 5.67131C78.4326 5.67131 77.7519 5.99992 77.7519 6.77948C77.7519 7.35628 78.1028 7.63828 78.59 7.63828C79.2112 7.63828 79.7893 7.16402 79.7893 6.51963V5.67131ZM86.911 8.40852L86.8539 7.52641H86.8201C86.4692 8.19294 85.8794 8.5332 85.0554 8.5332C83.7301 8.5332 82.7487 7.36794 82.7487 5.72841C82.7487 4.00965 83.7663 2.79894 85.1556 2.79894C85.8911 2.79894 86.4121 3.04714 86.7058 3.54588H86.7303V0.39151H87.953V6.92747C87.953 7.45883 87.9658 7.95639 87.9985 8.40852H86.911ZM86.7303 5.17491C86.7303 4.40584 86.221 3.7498 85.4435 3.7498C84.5379 3.7498 83.9842 4.55266 83.9842 5.68297C83.9842 6.79113 84.5589 7.54972 85.4191 7.54972C86.1872 7.54972 86.7303 6.88202 86.7303 6.09081V5.17491ZM95.7052 8.5332C94.1002 8.5332 93.0594 7.33414 93.0594 5.70627C93.0594 4.00965 94.1224 2.80011 95.7961 2.80011C97.3801 2.80011 98.4431 3.94206 98.4431 5.61655C98.4443 7.33414 97.3475 8.5332 95.7052 8.5332ZM95.7507 3.6927C94.8695 3.6927 94.3042 4.5177 94.3042 5.67131C94.3042 6.80278 94.8812 7.62779 95.739 7.62779C96.5992 7.62779 97.175 6.74569 97.175 5.64801C97.1773 4.52936 96.612 3.6927 95.7507 3.6927ZM105.012 8.40852H103.79V5.25299C103.79 4.28116 103.417 3.79408 102.681 3.79408C101.957 3.79408 101.461 4.41633 101.461 5.13996V8.40852H100.238V4.48391C100.238 3.998 100.226 3.47712 100.193 2.91197H101.267L101.324 3.76028H101.358C101.686 3.17299 102.354 2.79894 103.1 2.79894C104.254 2.79894 105.012 3.68105 105.012 5.11665V8.40852ZM113.231 3.82904H111.887V6.49749C111.887 7.17683 112.122 7.51593 112.598 7.51593C112.813 7.51593 112.994 7.49262 113.14 7.45883L113.174 8.38638C112.937 8.47727 112.62 8.52271 112.226 8.52271C111.263 8.52271 110.687 7.99135 110.687 6.60003V3.82904H109.886V2.91314H110.687V1.90635L111.887 1.54395V2.91197H113.231V3.82904ZM119.697 8.40852H118.477V5.27629C118.477 4.29281 118.105 3.79524 117.369 3.79524C116.736 3.79524 116.146 4.22522 116.146 5.09568V8.40852H114.925V0.39151H116.146V3.6927H116.17C116.555 3.09375 117.112 2.79894 117.823 2.79894C118.986 2.79894 119.697 3.70319 119.697 5.13996V8.40852ZM126.322 5.95447H122.657C122.68 6.99505 123.369 7.58235 124.389 7.58235C124.931 7.58235 125.43 7.49146 125.87 7.32249L126.06 8.1708C125.54 8.39686 124.928 8.5099 124.216 8.5099C122.497 8.5099 121.479 7.42387 121.479 5.74007C121.479 4.0551 122.522 2.78845 124.079 2.78845C125.483 2.78845 126.364 3.82904 126.364 5.40097C126.372 5.58648 126.358 5.77227 126.322 5.95447ZM125.202 5.08402C125.202 4.23571 124.775 3.63677 123.994 3.63677C123.292 3.63677 122.737 4.24736 122.658 5.08402H125.202Z" fill="black"/>
</svg>
