<svg width="313" height="90" viewBox="0 0 313 90" fill="none" xmlns="http://www.w3.org/2000/svg">
<path d="M91.398 65.4224V24.7769H112.624V31.1899H98.5335V38.0544H109.463V44.2867H98.5335V58.7836H112.624V65.4224H91.398ZM117.14 31.4157V24.7769H145.005V31.4157H134.843V65.4224H127.301V31.4157H117.14ZM142.205 65.4224L159.908 23.3769H159.998L177.747 65.4224H170.295L166.818 56.9771H152.863L149.385 65.4224H142.205ZM155.347 51.0158H164.334L162.211 45.9126C161.76 44.8287 161.338 43.7749 160.947 42.7513C160.555 41.6975 160.179 40.4781 159.818 39.0932C159.456 40.4781 159.08 41.6824 158.689 42.7061C158.327 43.7298 157.921 44.7986 157.469 45.9126L155.347 51.0158ZM196.653 66.0546C194.906 66.0546 193.281 65.7385 191.775 65.1062C190.3 64.474 189.02 63.6159 187.936 62.532V65.4224H181.749V22.0672H188.84V40.4028C189.893 39.5598 191.068 38.8975 192.362 38.4157C193.687 37.934 195.117 37.6932 196.653 37.6932C199.182 37.6932 201.47 38.3405 203.517 39.6351C205.565 40.8996 207.19 42.6007 208.395 44.7384C209.629 46.876 210.246 49.2545 210.246 51.8739C210.246 54.4632 209.629 56.8417 208.395 59.0094C207.19 61.1471 205.565 62.8632 203.517 64.1578C201.47 65.4224 199.182 66.0546 196.653 66.0546ZM195.795 59.7772C197.24 59.7772 198.534 59.4159 199.678 58.6933C200.853 57.9707 201.786 57.0223 202.479 55.8481C203.171 54.6438 203.517 53.3191 203.517 51.8739C203.517 50.4287 203.171 49.119 202.479 47.9448C201.786 46.7405 200.853 45.7771 199.678 45.0545C198.534 44.3319 197.255 43.9706 195.84 43.9706C194.395 43.9706 193.085 44.3319 191.911 45.0545C190.767 45.7771 189.848 46.7405 189.156 47.9448C188.463 49.119 188.117 50.4287 188.117 51.8739C188.117 53.3191 188.463 54.6438 189.156 55.8481C189.848 57.0223 190.767 57.9707 191.911 58.6933C193.085 59.4159 194.38 59.7772 195.795 59.7772ZM215.454 65.4224V22.0672H222.544V65.4224H215.454ZM242.983 66.2353C240.002 66.2353 237.353 65.603 235.034 64.3385C232.746 63.074 230.955 61.3428 229.66 59.1449C228.396 56.9169 227.763 54.4029 227.763 51.6029C227.763 48.9233 228.381 46.5298 229.615 44.4222C230.88 42.2846 232.581 40.5985 234.718 39.3641C236.856 38.1297 239.219 37.5125 241.809 37.5125C244.458 37.5125 246.822 38.1297 248.899 39.3641C251.007 40.5684 252.677 42.2093 253.912 44.2867C255.146 46.3642 255.764 48.7276 255.764 51.3771V53.9513H238.918C238.166 53.9513 237.428 53.9062 236.705 53.8158C235.983 53.7255 235.26 53.6201 234.538 53.4997C234.899 55.4567 235.847 57.0675 237.383 58.332C238.918 59.5965 240.845 60.2288 243.163 60.2288C244.88 60.2288 246.43 59.8675 247.815 59.1449C249.2 58.4223 250.344 57.5191 251.247 56.4352L252.873 63.074C251.518 64.1277 249.998 64.9105 248.312 65.4224C246.626 65.9643 244.849 66.2353 242.983 66.2353ZM234.357 49.119C235.892 48.818 237.413 48.6674 238.918 48.6674H244.744C245.557 48.6674 246.325 48.6975 247.047 48.7577C247.77 48.818 248.462 48.9083 249.125 49.0287C248.673 47.2825 247.785 45.8825 246.46 44.8287C245.166 43.7749 243.6 43.248 241.763 43.248C239.957 43.248 238.391 43.79 237.067 44.8738C235.742 45.9577 234.839 47.3728 234.357 49.119ZM257.917 65.4224L275.621 23.3769H275.711L293.459 65.4224H286.008L282.53 56.9771H268.575L265.098 65.4224H257.917ZM271.059 51.0158H280.046L277.924 45.9126C277.472 44.8287 277.051 43.7749 276.659 42.7513C276.268 41.6975 275.891 40.4781 275.53 39.0932C275.169 40.4781 274.793 41.6824 274.401 42.7061C274.04 43.7298 273.633 44.7986 273.182 45.9126L271.059 51.0158ZM299.133 65.4224V24.7769H306.72V65.4224H299.133Z" fill="white"/>
<path d="M91.398 65.4224V24.7769H112.624V31.1899H98.5335V38.0544H109.463V44.2867H98.5335V58.7836H112.624V65.4224H91.398ZM117.14 31.4157V24.7769H145.005V31.4157H134.843V65.4224H127.301V31.4157H117.14ZM142.205 65.4224L159.908 23.3769H159.998L177.747 65.4224H170.295L166.818 56.9771H152.863L149.385 65.4224H142.205ZM155.347 51.0158H164.334L162.211 45.9126C161.76 44.8287 161.338 43.7749 160.947 42.7513C160.555 41.6975 160.179 40.4781 159.818 39.0932C159.456 40.4781 159.08 41.6824 158.689 42.7061C158.327 43.7298 157.921 44.7986 157.469 45.9126L155.347 51.0158ZM196.653 66.0546C194.906 66.0546 193.281 65.7385 191.775 65.1062C190.3 64.474 189.02 63.6159 187.936 62.532V65.4224H181.749V22.0672H188.84V40.4028C189.893 39.5598 191.068 38.8975 192.362 38.4157C193.687 37.934 195.117 37.6932 196.653 37.6932C199.182 37.6932 201.47 38.3405 203.517 39.6351C205.565 40.8996 207.19 42.6007 208.395 44.7384C209.629 46.876 210.246 49.2545 210.246 51.8739C210.246 54.4632 209.629 56.8417 208.395 59.0094C207.19 61.1471 205.565 62.8632 203.517 64.1578C201.47 65.4224 199.182 66.0546 196.653 66.0546ZM195.795 59.7772C197.24 59.7772 198.534 59.4159 199.678 58.6933C200.853 57.9707 201.786 57.0223 202.479 55.8481C203.171 54.6438 203.517 53.3191 203.517 51.8739C203.517 50.4287 203.171 49.119 202.479 47.9448C201.786 46.7405 200.853 45.7771 199.678 45.0545C198.534 44.3319 197.255 43.9706 195.84 43.9706C194.395 43.9706 193.085 44.3319 191.911 45.0545C190.767 45.7771 189.848 46.7405 189.156 47.9448C188.463 49.119 188.117 50.4287 188.117 51.8739C188.117 53.3191 188.463 54.6438 189.156 55.8481C189.848 57.0223 190.767 57.9707 191.911 58.6933C193.085 59.4159 194.38 59.7772 195.795 59.7772ZM215.454 65.4224V22.0672H222.544V65.4224H215.454ZM242.983 66.2353C240.002 66.2353 237.353 65.603 235.034 64.3385C232.746 63.074 230.955 61.3428 229.66 59.1449C228.396 56.9169 227.763 54.4029 227.763 51.6029C227.763 48.9233 228.381 46.5298 229.615 44.4222C230.88 42.2846 232.581 40.5985 234.718 39.3641C236.856 38.1297 239.219 37.5125 241.809 37.5125C244.458 37.5125 246.822 38.1297 248.899 39.3641C251.007 40.5684 252.677 42.2093 253.912 44.2867C255.146 46.3642 255.764 48.7276 255.764 51.3771V53.9513H238.918C238.166 53.9513 237.428 53.9062 236.705 53.8158C235.983 53.7255 235.26 53.6201 234.538 53.4997C234.899 55.4567 235.847 57.0675 237.383 58.332C238.918 59.5965 240.845 60.2288 243.163 60.2288C244.88 60.2288 246.43 59.8675 247.815 59.1449C249.2 58.4223 250.344 57.5191 251.247 56.4352L252.873 63.074C251.518 64.1277 249.998 64.9105 248.312 65.4224C246.626 65.9643 244.849 66.2353 242.983 66.2353ZM234.357 49.119C235.892 48.818 237.413 48.6674 238.918 48.6674H244.744C245.557 48.6674 246.325 48.6975 247.047 48.7577C247.77 48.818 248.462 48.9083 249.125 49.0287C248.673 47.2825 247.785 45.8825 246.46 44.8287C245.166 43.7749 243.6 43.248 241.763 43.248C239.957 43.248 238.391 43.79 237.067 44.8738C235.742 45.9577 234.839 47.3728 234.357 49.119ZM257.917 65.4224L275.621 23.3769H275.711L293.459 65.4224H286.008L282.53 56.9771H268.575L265.098 65.4224H257.917ZM271.059 51.0158H280.046L277.924 45.9126C277.472 44.8287 277.051 43.7749 276.659 42.7513C276.268 41.6975 275.891 40.4781 275.53 39.0932C275.169 40.4781 274.793 41.6824 274.401 42.7061C274.04 43.7298 273.633 44.7986 273.182 45.9126L271.059 51.0158ZM299.133 65.4224V24.7769H306.72V65.4224H299.133Z" fill="url(#paint0_linear_488_35)"/>
<path d="M36.0556 0C16.1426 0 0 16.1426 0 36.0556C0 45.2052 3.40803 53.5587 9.02391 59.9161L36.0556 90L63.1709 59.8211C68.5742 53.0481 72.1112 45.1597 72.1112 36.0556C72.1112 16.1426 55.9686 0 36.0556 0Z" fill="url(#paint1_linear_488_35)"/>
<path d="M36.0556 0C16.1426 0 0 16.1426 0 36.0556C0 45.2052 3.40803 53.5587 9.02391 59.9161L36.0556 90L63.1709 59.8211C68.5742 53.0481 72.1112 45.1597 72.1112 36.0556C72.1112 16.1426 55.9686 0 36.0556 0Z" fill="url(#paint2_linear_488_35)"/>
<path d="M36.0552 1.35889C55.2483 1.35889 70.8079 16.9177 70.8081 36.1108C70.8081 44.8826 67.4005 52.4867 62.187 59.022L36.0552 88.106L10.0005 59.1089C4.58772 52.9812 1.30322 44.9296 1.30322 36.1108C1.30342 16.9178 16.8622 1.35908 36.0552 1.35889Z" fill="#D9D9D9"/>
<path d="M36.0552 1.35889C55.2483 1.35889 70.8079 16.9177 70.8081 36.1108C70.8081 44.8826 67.4005 52.4867 62.187 59.022L36.0552 88.106L10.0005 59.1089C4.58772 52.9812 1.30322 44.9296 1.30322 36.1108C1.30342 16.9178 16.8622 1.35908 36.0552 1.35889Z" fill="url(#paint3_linear_488_35)"/>
<path d="M36.0552 1.35889C55.2483 1.35889 70.8079 16.9177 70.8081 36.1108C70.8081 44.8826 67.4005 52.4867 62.187 59.022L36.0552 88.106L10.0005 59.1089C4.58772 52.9812 1.30322 44.9296 1.30322 36.1108C1.30342 16.9178 16.8622 1.35908 36.0552 1.35889Z" fill="url(#paint4_linear_488_35)"/>
<path d="M36.0552 1.35889C55.2483 1.35889 70.8079 16.9177 70.8081 36.1108C70.8081 44.8826 67.4005 52.4867 62.187 59.022L36.0552 88.106L10.0005 59.1089C4.58772 52.9812 1.30322 44.9296 1.30322 36.1108C1.30342 16.9178 16.8622 1.35908 36.0552 1.35889Z" stroke="url(#paint5_linear_488_35)" stroke-width="0.251541"/>
<path d="M36.0554 4.8374C53.7301 4.8374 68.0591 19.1657 68.0593 36.8403C68.0593 44.9244 64.918 51.9264 60.1277 57.9312L60.1228 57.936L36.1492 84.6177L36.0554 84.7222L35.9626 84.6177L12.0632 58.02H12.0623C7.07763 52.3772 4.05249 44.9614 4.05249 36.8403C4.05274 19.1658 18.3809 4.83765 36.0554 4.8374Z" fill="#562400"/>
<path d="M36.0554 4.8374C53.7301 4.8374 68.0591 19.1657 68.0593 36.8403C68.0593 44.9244 64.918 51.9264 60.1277 57.9312L60.1228 57.936L36.1492 84.6177L36.0554 84.7222L35.9626 84.6177L12.0632 58.02H12.0623C7.07763 52.3772 4.05249 44.9614 4.05249 36.8403C4.05274 19.1658 18.3809 4.83765 36.0554 4.8374Z" fill="url(#paint6_linear_488_35)"/>
<path d="M36.0554 4.8374C53.7301 4.8374 68.0591 19.1657 68.0593 36.8403C68.0593 44.9244 64.918 51.9264 60.1277 57.9312L60.1228 57.936L36.1492 84.6177L36.0554 84.7222L35.9626 84.6177L12.0632 58.02H12.0623C7.07763 52.3772 4.05249 44.9614 4.05249 36.8403C4.05274 19.1658 18.3809 4.83765 36.0554 4.8374Z" stroke="url(#paint7_linear_488_35)" stroke-width="0.251541"/>
<g filter="url(#filter0_i_488_35)">
<path d="M36.0558 5.84229C18.8814 5.84229 4.95874 19.7649 4.95874 36.9394C4.95874 44.8306 7.89808 52.0354 12.7416 57.5185L36.0558 83.4651L59.4421 57.4365C64.1023 51.595 67.1529 44.7914 67.1529 36.9394C67.1529 19.7649 53.2303 5.84229 36.0558 5.84229Z" fill="url(#paint8_linear_488_35)"/>
</g>
<g filter="url(#filter1_d_488_35)">
<path d="M18.4408 47.6146L11.5964 40.8934C11.5033 40.8029 11.4404 40.6846 11.4128 40.5589L10.2783 35.2715L20.6544 45.3306C20.9185 45.5847 20.9235 46.0047 20.6695 46.2688L19.3841 47.602C19.1275 47.8686 18.7049 47.8737 18.4408 47.6146Z" fill="url(#paint9_linear_488_35)"/>
<path d="M18.5389 47.0305L12.0693 40.5508C12.0139 40.4955 11.9737 40.4226 11.9536 40.3471L10.9122 36.2344C10.9046 36.2042 10.9398 36.1841 10.9625 36.2067L20.3902 45.2672C20.5739 45.4433 20.5713 45.7401 20.3827 45.9137L19.1526 47.0456C18.9791 47.2066 18.7074 47.2016 18.5389 47.0331V47.0305Z" fill="url(#paint10_linear_488_35)"/>
<path d="M18.5389 47.0305L12.0693 40.5508C12.0139 40.4955 11.9737 40.4226 11.9536 40.3471L10.9122 36.2344C10.9046 36.2042 10.9398 36.1841 10.9625 36.2067L20.3902 45.2672C20.5739 45.4433 20.5713 45.7401 20.3827 45.9137L19.1526 47.0456C18.9791 47.2066 18.7074 47.2016 18.5389 47.0331V47.0305Z" fill="url(#paint11_linear_488_35)"/>
<path d="M18.5389 47.0305L12.0693 40.5508C12.0139 40.4955 11.9737 40.4226 11.9536 40.3471L10.9122 36.2344C10.9046 36.2042 10.9398 36.1841 10.9625 36.2067L20.3902 45.2672C20.5739 45.4433 20.5713 45.7401 20.3827 45.9137L19.1526 47.0456C18.9791 47.2066 18.7074 47.2016 18.5389 47.0331V47.0305Z" stroke="url(#paint12_linear_488_35)" stroke-width="0.12577" stroke-miterlimit="10"/>
<path d="M24.344 41.2456L17.5599 34.6955C17.4744 34.6125 17.4241 34.4967 17.4241 34.376V32.5674C17.4241 32.4366 17.4819 32.3109 17.5825 32.2278C19.215 30.8519 20.2941 29.9439 20.2941 28.4849C20.2941 27.1014 19.4515 24.747 16.2896 24.6816C15.12 24.664 14.1968 24.9734 13.5378 25.6199C12.6096 26.5279 12.5115 27.8032 12.5115 28.3088C12.5115 28.6358 12.5341 28.9327 12.5769 29.1968C12.6498 29.6445 12.8636 30.0646 13.1931 30.4092L14.7854 32.0694C14.8659 32.1524 14.9087 32.2605 14.9087 32.3763V34.9872C14.9087 35.2363 15.0042 35.4727 15.1803 35.6513L22.4901 43.0894C22.6737 43.278 22.9202 43.3711 23.1667 43.3711C23.4133 43.3711 23.6396 43.2831 23.8208 43.1095L24.3414 42.6114C24.5301 42.4329 24.6332 42.1889 24.6332 41.9298C24.6332 41.6707 24.5301 41.4267 24.344 41.2456ZM18.0429 28.4447C18.0429 29.3703 17.2907 30.1224 16.3651 30.1224C15.4394 30.1224 14.6873 29.3703 14.6873 28.4447C14.6873 27.519 15.4394 26.7669 16.3651 26.7669C17.2907 26.7669 18.0429 27.519 18.0429 28.4447Z" fill="url(#paint13_linear_488_35)"/>
<path d="M24.4222 41.1752L17.6381 34.6251C17.5023 34.4942 17.4268 34.3131 17.4268 34.1245V32.3159C17.4268 32.1096 17.5174 31.916 17.6759 31.7826C19.3813 30.3463 20.2969 29.5339 20.2969 28.2334C20.2969 26.9329 19.4694 24.742 16.5389 24.6816C13.6085 24.6213 13.0173 26.8122 13.0173 28.0548C13.0173 28.3994 13.0425 28.6786 13.0777 28.9025C13.1431 29.31 13.3418 29.6848 13.6286 29.9816L15.2208 31.6418C15.3441 31.7701 15.4145 31.9436 15.4145 32.1222V34.7332C15.4145 34.9143 15.4849 35.0904 15.6132 35.2212L22.923 42.6593C23.1896 42.9309 23.6248 42.9385 23.899 42.6744L24.4197 42.1763C24.7039 41.9021 24.7064 41.4468 24.4197 41.1727L24.4222 41.1752ZM14.6901 28.1932C14.6901 27.1266 15.5529 26.2638 16.6194 26.2638C17.6859 26.2638 18.5487 27.1266 18.5487 28.1932C18.5487 29.2597 17.6859 30.1225 16.6194 30.1225C15.5529 30.1225 14.6901 29.2597 14.6901 28.1932Z" fill="url(#paint14_linear_488_35)"/>
<path d="M24.4222 41.1752L17.6381 34.6251C17.5023 34.4942 17.4268 34.3131 17.4268 34.1245V32.3159C17.4268 32.1096 17.5174 31.916 17.6759 31.7826C19.3813 30.3463 20.2969 29.5339 20.2969 28.2334C20.2969 26.9329 19.4694 24.742 16.5389 24.6816C13.6085 24.6213 13.0173 26.8122 13.0173 28.0548C13.0173 28.3994 13.0425 28.6786 13.0777 28.9025C13.1431 29.31 13.3418 29.6848 13.6286 29.9816L15.2208 31.6418C15.3441 31.7701 15.4145 31.9436 15.4145 32.1222V34.7332C15.4145 34.9143 15.4849 35.0904 15.6132 35.2212L22.923 42.6593C23.1896 42.9309 23.6248 42.9385 23.899 42.6744L24.4197 42.1763C24.7039 41.9021 24.7064 41.4468 24.4197 41.1727L24.4222 41.1752ZM14.6901 28.1932C14.6901 27.1266 15.5529 26.2638 16.6194 26.2638C17.6859 26.2638 18.5487 27.1266 18.5487 28.1932C18.5487 29.2597 17.6859 30.1225 16.6194 30.1225C15.5529 30.1225 14.6901 29.2597 14.6901 28.1932Z" fill="url(#paint15_linear_488_35)"/>
<path d="M24.4222 41.1752L17.6381 34.6251C17.5023 34.4942 17.4268 34.3131 17.4268 34.1245V32.3159C17.4268 32.1096 17.5174 31.916 17.6759 31.7826C19.3813 30.3463 20.2969 29.5339 20.2969 28.2334C20.2969 26.9329 19.4694 24.742 16.5389 24.6816C13.6085 24.6213 13.0173 26.8122 13.0173 28.0548C13.0173 28.3994 13.0425 28.6786 13.0777 28.9025C13.1431 29.31 13.3418 29.6848 13.6286 29.9816L15.2208 31.6418C15.3441 31.7701 15.4145 31.9436 15.4145 32.1222V34.7332C15.4145 34.9143 15.4849 35.0904 15.6132 35.2212L22.923 42.6593C23.1896 42.9309 23.6248 42.9385 23.899 42.6744L24.4197 42.1763C24.7039 41.9021 24.7064 41.4468 24.4197 41.1727L24.4222 41.1752ZM14.6901 28.1932C14.6901 27.1266 15.5529 26.2638 16.6194 26.2638C17.6859 26.2638 18.5487 27.1266 18.5487 28.1932C18.5487 29.2597 17.6859 30.1225 16.6194 30.1225C15.5529 30.1225 14.6901 29.2597 14.6901 28.1932Z" stroke="url(#paint16_linear_488_35)" stroke-width="0.12577" stroke-miterlimit="10"/>
<path d="M30.2077 34.3205C29.2041 33.3848 26.5931 30.9348 26.3365 30.6556C26.1604 30.4619 26.0447 30.2481 25.9894 30.1349C25.9718 30.0972 25.9617 30.0544 25.9617 30.0091V24.928C25.9617 24.7066 26.0422 23.9319 27.071 23.2628C28.4972 22.3371 29.5713 20.5738 29.5713 19.1652C29.5713 17.6384 28.1174 14.645 24.7543 14.645C21.3912 14.645 19.7612 17.0347 19.7612 19.4017C19.7612 22.0076 21.7484 23.1873 22.4024 23.5722C23.0036 23.9269 23.0438 24.4576 23.0464 24.4576C23.0464 24.6966 23.0162 30.3059 23.0464 30.7864C23.0791 31.3096 23.2929 31.5636 23.396 31.6542C24.2588 32.6 26.8949 35.4952 27.3225 35.9354C27.4005 36.197 27.4383 37.2862 27.4257 38.1892C27.4257 38.6797 27.7175 38.8256 27.8432 38.8659C27.8986 38.8835 27.9589 38.8936 28.0218 38.8936C28.8821 38.8936 30.2304 37.256 30.5674 36.7831C31.3573 35.6713 30.6882 34.6953 30.2077 34.3231V34.3205ZM26.4069 19.4268C26.4069 20.4481 25.5769 21.2781 24.5556 21.2781C23.5343 21.2781 22.7043 20.4481 22.7043 19.4268C22.7043 18.4056 23.5343 17.5755 24.5556 17.5755C25.5769 17.5755 26.4069 18.4056 26.4069 19.4268Z" fill="#613202"/>
<path d="M30.2152 34.5525C30.2152 34.5525 26.6333 31.2095 26.3088 30.8523C26.1076 30.631 25.9743 30.392 25.9013 30.2411C25.8586 30.1505 25.8359 30.0524 25.8359 29.9493V24.8682C25.8359 24.5713 25.934 23.6557 27.1188 22.886C28.4519 22.0207 29.448 20.3454 29.448 19.1028C29.448 17.8602 28.1752 14.96 25.0084 14.96C21.8415 14.96 20.3926 17.0603 20.3926 19.3393C20.3926 21.6182 22.0502 22.7124 22.8476 23.1853C23.6475 23.6582 23.6752 24.3978 23.6752 24.3978C23.6752 24.3978 23.645 30.2285 23.6752 30.7014C23.7054 31.1743 23.9116 31.3227 23.9116 31.3227C23.9116 31.3227 27.7099 35.4932 27.8759 35.6442C28.0872 35.8328 28.0545 38.1294 28.0545 38.1294C28.0545 39.128 29.7122 37.6263 30.5095 36.5019C31.3094 35.3775 30.2127 34.55 30.2127 34.55L30.2152 34.5525ZM22.581 19.372C22.581 18.142 23.5796 17.1433 24.8096 17.1433C26.0397 17.1433 27.0383 18.142 27.0383 19.372C27.0383 20.602 26.0397 21.6006 24.8096 21.6006C23.5796 21.6006 22.581 20.602 22.581 19.372Z" fill="url(#paint17_linear_488_35)"/>
<path d="M30.2152 34.5525C30.2152 34.5525 26.6333 31.2095 26.3088 30.8523C26.1076 30.631 25.9743 30.392 25.9013 30.2411C25.8586 30.1505 25.8359 30.0524 25.8359 29.9493V24.8682C25.8359 24.5713 25.934 23.6557 27.1188 22.886C28.4519 22.0207 29.448 20.3454 29.448 19.1028C29.448 17.8602 28.1752 14.96 25.0084 14.96C21.8415 14.96 20.3926 17.0603 20.3926 19.3393C20.3926 21.6182 22.0502 22.7124 22.8476 23.1853C23.6475 23.6582 23.6752 24.3978 23.6752 24.3978C23.6752 24.3978 23.645 30.2285 23.6752 30.7014C23.7054 31.1743 23.9116 31.3227 23.9116 31.3227C23.9116 31.3227 27.7099 35.4932 27.8759 35.6442C28.0872 35.8328 28.0545 38.1294 28.0545 38.1294C28.0545 39.128 29.7122 37.6263 30.5095 36.5019C31.3094 35.3775 30.2127 34.55 30.2127 34.55L30.2152 34.5525ZM22.581 19.372C22.581 18.142 23.5796 17.1433 24.8096 17.1433C26.0397 17.1433 27.0383 18.142 27.0383 19.372C27.0383 20.602 26.0397 21.6006 24.8096 21.6006C23.5796 21.6006 22.581 20.602 22.581 19.372Z" fill="url(#paint18_linear_488_35)"/>
<path d="M30.2152 34.5525C30.2152 34.5525 26.6333 31.2095 26.3088 30.8523C26.1076 30.631 25.9743 30.392 25.9013 30.2411C25.8586 30.1505 25.8359 30.0524 25.8359 29.9493V24.8682C25.8359 24.5713 25.934 23.6557 27.1188 22.886C28.4519 22.0207 29.448 20.3454 29.448 19.1028C29.448 17.8602 28.1752 14.96 25.0084 14.96C21.8415 14.96 20.3926 17.0603 20.3926 19.3393C20.3926 21.6182 22.0502 22.7124 22.8476 23.1853C23.6475 23.6582 23.6752 24.3978 23.6752 24.3978C23.6752 24.3978 23.645 30.2285 23.6752 30.7014C23.7054 31.1743 23.9116 31.3227 23.9116 31.3227C23.9116 31.3227 27.7099 35.4932 27.8759 35.6442C28.0872 35.8328 28.0545 38.1294 28.0545 38.1294C28.0545 39.128 29.7122 37.6263 30.5095 36.5019C31.3094 35.3775 30.2127 34.55 30.2127 34.55L30.2152 34.5525ZM22.581 19.372C22.581 18.142 23.5796 17.1433 24.8096 17.1433C26.0397 17.1433 27.0383 18.142 27.0383 19.372C27.0383 20.602 26.0397 21.6006 24.8096 21.6006C23.5796 21.6006 22.581 20.602 22.581 19.372Z" stroke="url(#paint19_linear_488_35)" stroke-width="0.12577" stroke-miterlimit="10"/>
<path d="M59.7836 21.8139C59.7409 21.673 59.6503 21.5523 59.5296 21.4768C59.3585 21.346 59.1548 21.2781 58.9435 21.2781C58.4127 21.2781 57.9901 21.7007 57.8694 21.834C53.6033 25.7882 47.1135 31.7749 46.6658 32.0943C46.6104 32.1321 46.5501 32.1748 46.4897 32.2176C46.1828 32.4364 45.8357 32.6855 45.5615 32.6855C45.4886 32.6855 45.3754 32.6704 45.227 32.5345C44.8849 32.2226 45.1037 31.8076 45.1917 31.6743C45.9137 30.9448 54.8761 21.8767 55.4169 21.3158C55.5326 21.1951 55.676 21.0643 55.8269 20.9234C56.4356 20.3625 57.2707 19.5953 56.6494 18.8985C56.4633 18.6897 56.2218 18.5816 55.9527 18.5816C55.4672 18.5816 55.0672 18.9513 54.9691 19.0519C54.4057 19.5777 43.8561 29.4104 43.363 29.9487C43.0511 30.2883 42.7946 30.4618 42.6009 30.4618C42.4801 30.4618 42.3468 30.3889 42.2009 30.2455C41.8437 29.8883 42.3971 29.106 42.4902 28.9828C42.7795 28.6985 45.5414 25.9743 48.2379 23.2476C49.9056 21.5623 51.2212 20.2065 52.1519 19.2154C52.7078 18.6218 53.1329 18.1539 53.4121 17.8219C53.7919 17.3717 54.1516 16.9465 53.8045 16.5642C53.6259 16.3655 53.3844 16.2573 53.1279 16.2573C52.7656 16.2573 52.4864 16.4686 52.4361 16.5114L52.4286 16.5189L52.421 16.5265C51.9029 16.9868 39.7107 27.8156 37.9423 29.828C36.4834 31.4856 36.5262 32.3258 36.7651 33.513C36.8154 33.762 36.8683 34.0186 36.8959 34.3054C37.0041 35.3945 36.6343 35.8071 36.5765 35.8624L36.5438 35.8851L36.5387 35.8976L19.8993 52.2931L19.8691 52.3232L19.844 52.3585C19.444 52.9194 19.2327 54.0362 20.2842 54.8236C20.6514 55.0977 21.0564 55.2361 21.484 55.2361C22.3066 55.2361 22.9027 54.7179 22.9681 54.6575C23.5718 54.0891 37.5826 40.8857 38.9963 39.4066C39.7585 38.6092 40.1735 38.4457 40.5634 38.4457C40.908 38.4457 41.3155 38.574 41.879 38.7526L42.0525 38.808C42.3493 38.901 42.6587 38.9488 42.9782 38.9488C44.3742 38.9488 45.4936 38.0458 45.5414 38.0081L45.564 37.9904L45.5842 37.9703L48.9146 34.5292L48.9196 34.5242L48.9246 34.5192C49.3095 34.0966 58.3498 24.1834 59.1447 23.2552C59.7082 22.5987 59.8943 22.1836 59.7861 21.8239L59.7836 21.8139Z" fill="#613202"/>
<path d="M20.5033 52.6428L37.1427 36.2473C37.1427 36.2473 37.7942 35.7392 37.6458 34.2476C37.4974 32.756 36.7981 32.1648 38.569 30.1525C40.3398 28.1402 53.0049 16.8938 53.0049 16.8938C53.0049 16.8938 53.3973 16.5769 53.6866 16.8938C53.9758 17.2107 42.3672 28.6433 42.3672 28.6433C42.3672 28.6433 41.3686 29.8632 42.1006 30.5952C42.8326 31.3272 43.4992 30.8166 43.9872 30.2833C44.4751 29.75 55.5731 19.4067 55.5731 19.4067C55.5731 19.4067 56.1492 18.808 56.5265 19.2281C56.9038 19.6482 55.8599 20.3827 55.3065 20.9587C54.7531 21.5347 45.0537 31.3448 45.0537 31.3448C45.0537 31.3448 44.4098 32.2327 45.1417 32.8993C45.8737 33.5659 46.6283 32.8993 47.2069 32.4994C47.7854 32.0994 58.4809 22.1787 58.4809 22.1787C58.4809 22.1787 59.057 21.5121 59.5022 21.8894C59.5022 21.8894 59.8141 21.9774 59.0142 22.9106C58.2143 23.8439 48.8042 34.1646 48.8042 34.1646L45.4738 37.6057C45.4738 37.6057 44.0098 38.803 42.4553 38.315C40.9008 37.827 40.3021 37.5604 38.8809 39.047C37.4597 40.5336 22.8779 54.2728 22.8779 54.2728C22.8779 54.2728 21.8742 55.1833 20.8328 54.4061C19.7915 53.6288 20.5008 52.6377 20.5008 52.6377L20.5033 52.6428Z" fill="url(#paint20_linear_488_35)" stroke="url(#paint21_linear_488_35)" stroke-width="0.251541" stroke-miterlimit="10"/>
<path d="M61.1648 29.9743L60.9862 29.3027L60.5209 29.8184L57.9904 32.6155L57.8219 32.8017L57.93 33.0306C57.9376 33.0482 58.8029 34.9297 58.5463 37.9205C58.3099 40.685 57.0371 44.9938 52.3282 49.8184C48.6834 53.0759 44.2261 54.726 39.0745 54.726C34.1972 54.726 30.4743 53.1916 30.4366 53.174L30.2127 53.0809L30.0342 53.2469L28.2004 54.9523L27.8608 55.2668L28.2356 55.5359C29.8354 56.6804 33.9481 58.6173 39.2179 58.6173C44.0852 58.6173 48.8066 57.0024 53.2514 53.8154C59.4418 49.3757 61.2655 43.1249 61.7031 38.6651C62.176 33.8481 61.2076 30.1303 61.1648 29.9743Z" fill="#613202"/>
<path d="M28.4546 54.9741L30.2883 53.2686C30.2883 53.2686 42.8654 58.5359 52.5874 49.8351C61.9095 40.2916 58.2697 32.6121 58.2697 32.6121L60.8002 29.8149C60.8002 29.8149 64.7947 44.8194 53.0326 53.2535C41.2706 61.6877 30.7335 56.604 28.4546 54.9741Z" fill="url(#paint22_linear_488_35)"/>
<path d="M28.4546 54.9741L30.2883 53.2686C30.2883 53.2686 42.8654 58.5359 52.5874 49.8351C61.9095 40.2916 58.2697 32.6121 58.2697 32.6121L60.8002 29.8149C60.8002 29.8149 64.7947 44.8194 53.0326 53.2535C41.2706 61.6877 30.7335 56.604 28.4546 54.9741Z" fill="url(#paint23_linear_488_35)"/>
<path d="M28.4546 54.9741L30.2883 53.2686C30.2883 53.2686 42.8654 58.5359 52.5874 49.8351C61.9095 40.2916 58.2697 32.6121 58.2697 32.6121L60.8002 29.8149C60.8002 29.8149 64.7947 44.8194 53.0326 53.2535C41.2706 61.6877 30.7335 56.604 28.4546 54.9741Z" stroke="url(#paint24_linear_488_35)" stroke-width="0.251541" stroke-miterlimit="10"/>
<path d="M42.8275 14.8415C41.8742 14.678 40.868 14.595 39.8392 14.595C36.4459 14.595 33.8726 15.4703 33.7645 15.5081L33.3469 15.6514L33.5557 16.0413L34.7405 18.2599L34.8763 18.514L35.1555 18.4511C36.2849 18.197 37.3892 18.0688 38.4306 18.0688C39.4719 18.0688 40.0153 18.192 40.0228 18.1945L40.2215 18.2373L40.3674 18.0939L43.0312 15.4804L43.557 14.9647L42.83 14.8415H42.8275Z" fill="#613202"/>
<path d="M35.0673 17.8323L33.8826 15.6137C33.8826 15.6137 38.0858 14.1623 42.7594 14.9622L40.0956 17.5757C40.0956 17.5757 38.1462 17.1431 35.0673 17.8323Z" fill="url(#paint25_linear_488_35)"/>
<path d="M35.0673 17.8323L33.8826 15.6137C33.8826 15.6137 38.0858 14.1623 42.7594 14.9622L40.0956 17.5757C40.0956 17.5757 38.1462 17.1431 35.0673 17.8323Z" fill="url(#paint26_linear_488_35)"/>
<path d="M35.0673 17.8323L33.8826 15.6137C33.8826 15.6137 38.0858 14.1623 42.7594 14.9622L40.0956 17.5757C40.0956 17.5757 38.1462 17.1431 35.0673 17.8323Z" stroke="url(#paint27_linear_488_35)" stroke-width="0.188656" stroke-miterlimit="10"/>
</g>
<defs>
<filter id="filter0_i_488_35" x="3.70104" y="5.84229" width="63.4518" height="78.629" filterUnits="userSpaceOnUse" color-interpolation-filters="sRGB">
<feFlood flood-opacity="0" result="BackgroundImageFix"/>
<feBlend mode="normal" in="SourceGraphic" in2="BackgroundImageFix" result="shape"/>
<feColorMatrix in="SourceAlpha" type="matrix" values="0 0 0 0 0 0 0 0 0 0 0 0 0 0 0 0 0 0 127 0" result="hardAlpha"/>
<feOffset dx="-1.2577" dy="1.00616"/>
<feGaussianBlur stdDeviation="3.01849"/>
<feComposite in2="hardAlpha" operator="arithmetic" k2="-1" k3="1"/>
<feColorMatrix type="matrix" values="0 0 0 0 0 0 0 0 0 0 0 0 0 0 0 0 0 0 1 0"/>
<feBlend mode="normal" in2="shape" result="effect1_innerShadow_488_35"/>
</filter>
<filter id="filter1_d_488_35" x="7.25983" y="12.8342" width="57.5917" height="50.0592" filterUnits="userSpaceOnUse" color-interpolation-filters="sRGB">
<feFlood flood-opacity="0" result="BackgroundImageFix"/>
<feColorMatrix in="SourceAlpha" type="matrix" values="0 0 0 0 0 0 0 0 0 0 0 0 0 0 0 0 0 0 127 0" result="hardAlpha"/>
<feOffset dy="1.2577"/>
<feGaussianBlur stdDeviation="1.50924"/>
<feComposite in2="hardAlpha" operator="out"/>
<feColorMatrix type="matrix" values="0 0 0 0 0 0 0 0 0 0 0 0 0 0 0 0 0 0 0.75 0"/>
<feBlend mode="normal" in2="BackgroundImageFix" result="effect1_dropShadow_488_35"/>
<feBlend mode="normal" in="SourceGraphic" in2="effect1_dropShadow_488_35" result="shape"/>
</filter>
<linearGradient id="paint0_linear_488_35" x1="202.553" y1="27.1389" x2="202.553" y2="65.4224" gradientUnits="userSpaceOnUse">
<stop stop-color="#FFEB5D"/>
<stop offset="1" stop-color="#BE7D08"/>
</linearGradient>
<linearGradient id="paint1_linear_488_35" x1="63.9139" y1="13.4886" x2="12.924" y2="66.6482" gradientUnits="userSpaceOnUse">
<stop stop-color="#F6B60E"/>
<stop offset="1" stop-color="#4F2700"/>
</linearGradient>
<linearGradient id="paint2_linear_488_35" x1="15.0853" y1="68.9444" x2="58.0484" y2="7.40865" gradientUnits="userSpaceOnUse">
<stop stop-color="#613202"/>
<stop offset="1" stop-color="#F8D244"/>
</linearGradient>
<linearGradient id="paint3_linear_488_35" x1="63.0042" y1="14.2811" x2="14.5501" y2="63.1774" gradientUnits="userSpaceOnUse">
<stop stop-color="#FFEB75"/>
<stop offset="1" stop-color="#B57303"/>
</linearGradient>
<linearGradient id="paint4_linear_488_35" x1="11.5783" y1="57.8581" x2="71.3567" y2="19.8225" gradientUnits="userSpaceOnUse">
<stop stop-color="#9E5D06"/>
<stop offset="1" stop-color="#FEE66D"/>
</linearGradient>
<linearGradient id="paint5_linear_488_35" x1="36.0555" y1="1.23291" x2="36.0555" y2="88.2942" gradientUnits="userSpaceOnUse">
<stop stop-color="#FFD340"/>
<stop offset="1" stop-color="#BA7914"/>
</linearGradient>
<linearGradient id="paint6_linear_488_35" x1="21.7186" y1="69.457" x2="69.9208" y2="22.4642" gradientUnits="userSpaceOnUse">
<stop stop-color="#704E1E"/>
<stop offset="0.95" stop-color="#541701"/>
</linearGradient>
<linearGradient id="paint7_linear_488_35" x1="36.0559" y1="4.96338" x2="36.0559" y2="84.534" gradientUnits="userSpaceOnUse">
<stop stop-color="#FFD340"/>
<stop offset="1" stop-color="#BA7914"/>
</linearGradient>
<linearGradient id="paint8_linear_488_35" x1="62.5602" y1="17.9952" x2="18.9414" y2="67.2095" gradientUnits="userSpaceOnUse">
<stop offset="0.0532163" stop-color="#2B2B2B"/>
<stop offset="0.452625" stop-color="#131314"/>
<stop offset="1"/>
</linearGradient>
<linearGradient id="paint9_linear_488_35" x1="13.1987" y1="43.5899" x2="18.9087" y2="36.5166" gradientUnits="userSpaceOnUse">
<stop stop-color="#613202"/>
<stop offset="1" stop-color="#F8D244"/>
</linearGradient>
<linearGradient id="paint10_linear_488_35" x1="13.9709" y1="43.602" x2="16.4586" y2="39.8465" gradientUnits="userSpaceOnUse">
<stop stop-color="#613202"/>
<stop offset="1" stop-color="#F8D244"/>
</linearGradient>
<linearGradient id="paint11_linear_488_35" x1="14.3687" y1="34.799" x2="13.5548" y2="47.7825" gradientUnits="userSpaceOnUse">
<stop stop-color="#FFEB5D"/>
<stop offset="1" stop-color="#BE7D08"/>
</linearGradient>
<linearGradient id="paint12_linear_488_35" x1="11.5411" y1="43.5917" x2="13.1466" y2="45.7713" gradientUnits="userSpaceOnUse">
<stop stop-color="#FFC900"/>
<stop offset="1" stop-color="#C0800B"/>
</linearGradient>
<linearGradient id="paint13_linear_488_35" x1="18.7748" y1="42.9058" x2="18.2416" y2="22.3398" gradientUnits="userSpaceOnUse">
<stop stop-color="#613202"/>
<stop offset="0.19" stop-color="#643503"/>
<stop offset="0.35" stop-color="#6D3F07"/>
<stop offset="0.5" stop-color="#7E500E"/>
<stop offset="0.64" stop-color="#956918"/>
<stop offset="0.77" stop-color="#B28825"/>
<stop offset="0.9" stop-color="#D6AE35"/>
<stop offset="1" stop-color="#F8D244"/>
</linearGradient>
<linearGradient id="paint14_linear_488_35" x1="16.7301" y1="37.5404" x2="22.9909" y2="28.095" gradientUnits="userSpaceOnUse">
<stop stop-color="#613202"/>
<stop offset="1" stop-color="#F8D244"/>
</linearGradient>
<linearGradient id="paint15_linear_488_35" x1="18.8256" y1="26.2298" x2="13.2996" y2="39.1158" gradientUnits="userSpaceOnUse">
<stop stop-color="#FFEB5D"/>
<stop offset="1" stop-color="#BE7D08"/>
</linearGradient>
<linearGradient id="paint16_linear_488_35" x1="13.7785" y1="36.9447" x2="16.5665" y2="39.7018" gradientUnits="userSpaceOnUse">
<stop stop-color="#FFC900"/>
<stop offset="1" stop-color="#C0800B"/>
</linearGradient>
<linearGradient id="paint17_linear_488_35" x1="25.8636" y1="37.7999" x2="25.197" y2="12.0924" gradientUnits="userSpaceOnUse">
<stop stop-color="#613202"/>
<stop offset="0.19" stop-color="#643503"/>
<stop offset="0.35" stop-color="#6D3F07"/>
<stop offset="0.5" stop-color="#7E500E"/>
<stop offset="0.64" stop-color="#956918"/>
<stop offset="0.77" stop-color="#B28825"/>
<stop offset="0.9" stop-color="#D6AE35"/>
<stop offset="1" stop-color="#F8D244"/>
</linearGradient>
<linearGradient id="paint18_linear_488_35" x1="26.5354" y1="16.9198" x2="15.8107" y2="25.9423" gradientUnits="userSpaceOnUse">
<stop stop-color="#FFEB5D"/>
<stop offset="1" stop-color="#BE7D08"/>
</linearGradient>
<linearGradient id="paint19_linear_488_35" x1="21.0746" y1="30.8044" x2="24.435" y2="33.1093" gradientUnits="userSpaceOnUse">
<stop stop-color="#FFC900"/>
<stop offset="1" stop-color="#C0800B"/>
</linearGradient>
<linearGradient id="paint20_linear_488_35" x1="54.3604" y1="19.7516" x2="21.5846" y2="52.1691" gradientUnits="userSpaceOnUse">
<stop stop-color="#FFEB5D"/>
<stop offset="1" stop-color="#BE7D08"/>
</linearGradient>
<linearGradient id="paint21_linear_488_35" x1="22.8397" y1="42.3552" x2="28.0679" y2="50.7337" gradientUnits="userSpaceOnUse">
<stop stop-color="#FFC900"/>
<stop offset="1" stop-color="#C0800B"/>
</linearGradient>
<linearGradient id="paint22_linear_488_35" x1="25.4462" y1="56.7172" x2="55.5506" y2="42.4347" gradientUnits="userSpaceOnUse">
<stop stop-color="#613202"/>
<stop offset="0.19" stop-color="#643503"/>
<stop offset="0.35" stop-color="#6D3F07"/>
<stop offset="0.5" stop-color="#7E500E"/>
<stop offset="0.64" stop-color="#956918"/>
<stop offset="0.77" stop-color="#B28825"/>
<stop offset="0.9" stop-color="#D6AE35"/>
<stop offset="1" stop-color="#F8D244"/>
</linearGradient>
<linearGradient id="paint23_linear_488_35" x1="57.0857" y1="32.0398" x2="32.9199" y2="59.0912" gradientUnits="userSpaceOnUse">
<stop stop-color="#FFEB5D"/>
<stop offset="1" stop-color="#BE7D08"/>
</linearGradient>
<linearGradient id="paint24_linear_488_35" x1="30.6168" y1="48.8107" x2="34.2687" y2="55.4343" gradientUnits="userSpaceOnUse">
<stop stop-color="#FFC900"/>
<stop offset="1" stop-color="#C0800B"/>
</linearGradient>
<linearGradient id="paint25_linear_488_35" x1="33.8851" y1="16.2778" x2="42.762" y2="16.2778" gradientUnits="userSpaceOnUse">
<stop stop-color="#613202"/>
<stop offset="0.14" stop-color="#643503"/>
<stop offset="0.25" stop-color="#6D3F07"/>
<stop offset="0.36" stop-color="#7E500E"/>
<stop offset="0.46" stop-color="#956918"/>
<stop offset="0.56" stop-color="#B28825"/>
<stop offset="0.65" stop-color="#D6AE35"/>
<stop offset="0.72" stop-color="#F8D244"/>
</linearGradient>
<linearGradient id="paint26_linear_488_35" x1="41.5844" y1="14.9674" x2="39.8484" y2="19.7016" gradientUnits="userSpaceOnUse">
<stop stop-color="#FFEB5D"/>
<stop offset="1" stop-color="#BE7D08"/>
</linearGradient>
<linearGradient id="paint27_linear_488_35" x1="34.4642" y1="16.8193" x2="34.6695" y2="17.7265" gradientUnits="userSpaceOnUse">
<stop stop-color="#FFC900"/>
<stop offset="1" stop-color="#C0800B"/>
</linearGradient>
</defs>
</svg>
