<svg width="124" height="30" viewBox="0 0 124 30" fill="none" xmlns="http://www.w3.org/2000/svg">
<path d="M40.0222 3.63839C40.0222 4.49448 39.8082 5.24356 39.2731 5.77861C38.6311 6.42068 37.882 6.74171 36.9189 6.74171C35.9558 6.74171 35.2067 6.42068 34.5647 5.77861C33.9226 5.13655 33.6016 4.38747 33.6016 3.42437C33.6016 2.46127 33.9226 1.71219 34.5647 1.07012C35.2067 0.428058 35.9558 0.107025 36.9189 0.107025C37.3469 0.107025 37.775 0.214036 38.203 0.428058C38.6311 0.64208 38.9521 0.856103 39.1661 1.17714L38.6311 1.71219C38.203 1.17714 37.668 0.963113 36.9189 0.963113C36.2768 0.963113 35.6348 1.17714 35.2067 1.71219C34.6717 2.14023 34.4577 2.7823 34.4577 3.53138C34.4577 4.28046 34.6717 4.92252 35.2067 5.35057C35.7418 5.77861 36.2768 6.09964 36.9189 6.09964C37.668 6.09964 38.203 5.88562 38.7381 5.35057C39.0591 5.02953 39.2731 4.60149 39.2731 4.06643H36.9189V3.21035H40.0222V3.63839ZM44.9447 0.963113H42.0554V2.99632H44.7307V3.7454H42.0554V5.77861H44.9447V6.6347H41.1993V0.214036H44.9447V0.963113ZM48.4761 6.6347H47.62V0.963113H45.8008V0.214036H50.2953V0.963113H48.4761V6.6347ZM53.3986 6.6347V0.214036H54.2547V6.6347H53.3986ZM57.8931 6.6347H57.037V0.963113H55.2178V0.214036H59.6052V0.963113H57.7861V6.6347H57.8931ZM68.0591 5.77861C67.4171 6.42068 66.668 6.74171 65.7049 6.74171C64.7418 6.74171 63.9927 6.42068 63.3506 5.77861C62.7086 5.13655 62.3875 4.38747 62.3875 3.42437C62.3875 2.46127 62.7086 1.71219 63.3506 1.07012C63.9927 0.428058 64.7418 0.107025 65.7049 0.107025C66.668 0.107025 67.4171 0.428058 68.0591 1.07012C68.7012 1.71219 69.0222 2.46127 69.0222 3.42437C69.0222 4.38747 68.7012 5.13655 68.0591 5.77861ZM63.9927 5.24356C64.4208 5.6716 65.0628 5.99263 65.7049 5.99263C66.347 5.99263 66.989 5.77861 67.4171 5.24356C67.8451 4.81551 68.1661 4.17345 68.1661 3.42437C68.1661 2.67529 67.9521 2.03322 67.4171 1.60518C66.989 1.17714 66.347 0.856102 65.7049 0.856102C65.0628 0.856102 64.4208 1.07012 63.9927 1.60518C63.5647 2.03322 63.2436 2.67529 63.2436 3.42437C63.2436 4.17345 63.4577 4.81551 63.9927 5.24356ZM70.1993 6.6347V0.214036H71.1624L74.2658 5.24356V0.214036H75.1219V6.6347H74.2658L70.9484 1.39116V6.6347H70.1993Z" fill="black" stroke="black" stroke-width="0.214022" stroke-miterlimit="10"/>
<path d="M62.1735 16.0517C59.6052 16.0517 57.572 17.9779 57.572 20.6532C57.572 23.2214 59.6052 25.2546 62.1735 25.2546C64.7418 25.2546 66.775 23.3284 66.775 20.6532C66.775 17.8709 64.7418 16.0517 62.1735 16.0517ZM62.1735 23.3284C60.7824 23.3284 59.6052 22.1513 59.6052 20.5461C59.6052 18.941 60.7824 17.7639 62.1735 17.7639C63.5646 17.7639 64.7418 18.834 64.7418 20.5461C64.7418 22.1513 63.5646 23.3284 62.1735 23.3284ZM52.2215 16.0517C49.6532 16.0517 47.62 17.9779 47.62 20.6532C47.62 23.2214 49.6532 25.2546 52.2215 25.2546C54.7897 25.2546 56.823 23.3284 56.823 20.6532C56.823 17.8709 54.7897 16.0517 52.2215 16.0517ZM52.2215 23.3284C50.8303 23.3284 49.6532 22.1513 49.6532 20.5461C49.6532 18.941 50.8303 17.7639 52.2215 17.7639C53.6126 17.7639 54.7897 18.834 54.7897 20.5461C54.7897 22.1513 53.6126 23.3284 52.2215 23.3284ZM40.3433 17.4428V19.369H44.9447C44.8377 20.4391 44.4097 21.2952 43.8746 21.8303C43.2325 22.4723 42.1624 23.2214 40.3433 23.2214C37.454 23.2214 35.3137 20.9742 35.3137 18.0849C35.3137 15.1956 37.561 12.9484 40.3433 12.9484C41.8414 12.9484 43.0185 13.5904 43.8746 14.3395L45.2658 12.9484C44.0886 11.8782 42.5905 11.0222 40.4503 11.0222C36.5979 11.0222 33.2805 14.2325 33.2805 18.0849C33.2805 21.9373 36.5979 25.1476 40.4503 25.1476C42.5905 25.1476 44.0886 24.5055 45.3728 23.1144C46.6569 21.8303 47.0849 20.0111 47.0849 18.6199C47.0849 18.1919 47.0849 17.7639 46.9779 17.4428H40.3433ZM88.9263 18.941C88.4982 17.8709 87.4281 16.0517 85.0739 16.0517C82.7196 16.0517 80.7934 17.8709 80.7934 20.6532C80.7934 23.2214 82.7196 25.2546 85.2879 25.2546C87.3211 25.2546 88.6052 23.9705 89.0333 23.2214L87.5351 22.1513C87.0001 22.9004 86.358 23.4354 85.2879 23.4354C84.2178 23.4354 83.5757 23.0074 83.0407 22.0443L89.1403 19.476L88.9263 18.941ZM82.7196 20.4391C82.7196 18.727 84.1108 17.7639 85.0739 17.7639C85.823 17.7639 86.572 18.1919 86.7861 18.727L82.7196 20.4391ZM77.6901 24.8266H79.7233V11.4502H77.6901V24.8266ZM74.4798 17.0148C73.9447 16.4797 73.0886 15.9447 72.0185 15.9447C69.7713 15.9447 67.6311 17.9779 67.6311 20.5461C67.6311 23.1144 69.6643 25.0406 72.0185 25.0406C73.0886 25.0406 73.9447 24.5056 74.3728 23.9705H74.4798V24.6126C74.4798 26.3247 73.5167 27.2878 72.0185 27.2878C70.8414 27.2878 69.9853 26.4317 69.7713 25.6827L68.0591 26.4317C68.5942 27.6089 69.8783 29.107 72.1255 29.107C74.4798 29.107 76.406 27.7159 76.406 24.3985V16.2657H74.4798V17.0148ZM72.1255 23.3284C70.7344 23.3284 69.5573 22.1513 69.5573 20.5461C69.5573 18.941 70.7344 17.7639 72.1255 17.7639C73.5167 17.7639 74.5868 18.941 74.5868 20.5461C74.5868 22.1513 73.5167 23.3284 72.1255 23.3284ZM98.2362 11.4502H93.4207V24.8266H95.4539V19.7971H98.2362C100.483 19.7971 102.624 18.1919 102.624 15.6236C102.624 13.0554 100.483 11.4502 98.2362 11.4502ZM98.3432 17.8709H95.4539V13.2694H98.3432C99.8414 13.2694 100.697 14.5535 100.697 15.5166C100.59 16.6937 99.7344 17.8709 98.3432 17.8709ZM110.65 15.9447C109.151 15.9447 107.653 16.5867 107.118 17.9779L108.937 18.727C109.365 17.9779 110.007 17.7639 110.757 17.7639C111.827 17.7639 112.79 18.4059 112.897 19.476V19.583C112.576 19.369 111.72 19.048 110.864 19.048C108.937 19.048 107.011 20.1181 107.011 22.0443C107.011 23.8635 108.616 25.0406 110.328 25.0406C111.72 25.0406 112.362 24.3985 112.897 23.7565H113.004V24.8266H114.93V19.6901C114.716 17.3358 112.897 15.9447 110.65 15.9447ZM110.435 23.3284C109.793 23.3284 108.83 23.0074 108.83 22.1513C108.83 21.0812 110.007 20.7602 110.971 20.7602C111.827 20.7602 112.255 20.9742 112.79 21.1882C112.576 22.4723 111.506 23.3284 110.435 23.3284ZM121.672 16.2657L119.424 22.0443H119.317L116.963 16.2657H114.823L118.354 24.3985L116.321 28.893H118.354L123.812 16.2657H121.672ZM103.694 24.8266H105.727V11.4502H103.694V24.8266Z" fill="black"/>
<path d="M0.428044 0.749115C0.107011 1.07015 0 1.6052 0 2.24727V25.8967C0 26.5388 0.214022 27.0738 0.535055 27.3949L0.642067 27.5019L13.9114 14.2325V14.0185L0.428044 0.749115Z" fill="black"/>
<path d="M18.1919 18.727L13.8044 14.3395V14.0185L18.1919 9.63104L18.2989 9.73805L23.5425 12.7344C25.0406 13.5905 25.0406 14.9816 23.5425 15.8377L18.1919 18.727Z" fill="black"/>
<path d="M18.2988 18.62L13.8044 14.1255L0.427979 27.5019C0.963034 28.037 1.71211 28.037 2.67521 27.6089L18.2988 18.62Z" fill="black"/>
<path d="M18.2988 9.63103L2.67521 0.749111C1.71211 0.214056 0.963034 0.321067 0.427979 0.856122L13.8044 14.1255L18.2988 9.63103Z" fill="black"/>
<path opacity="0.2" d="M18.1918 18.513L2.67521 27.2879C1.81912 27.8229 1.07005 27.7159 0.53499 27.2879L0.427979 27.3949L0.53499 27.5019C1.07005 27.9299 1.81912 28.037 2.67521 27.5019L18.1918 18.513Z" fill="black"/>
<path opacity="0.12" d="M0.428044 27.2879C0.107011 26.9668 0 26.4318 0 25.7897V25.8967C0 26.5388 0.214022 27.0739 0.535055 27.3949V27.2879H0.428044ZM23.5424 15.5167L18.1919 18.513L18.2989 18.62L23.5424 15.6237C24.2915 15.1956 24.6125 14.6606 24.6125 14.1255C24.6125 14.6606 24.1845 15.0886 23.5424 15.5167Z" fill="black"/>
<path opacity="0.25" d="M2.67528 0.856108L23.5424 12.7343C24.1845 13.1624 24.6125 13.5904 24.6125 14.1255C24.6125 13.5904 24.2915 13.0554 23.5424 12.6273L2.67528 0.749097C1.17712 -0.106992 0 0.535074 0 2.24725V2.35426C0 0.749097 1.17712 1.91033e-05 2.67528 0.856108Z" fill="black"/>
</svg>
