<svg width="241" height="70" viewBox="0 0 241 70" fill="none" xmlns="http://www.w3.org/2000/svg">
<path d="M71.0872 50.9951V19.382H87.5962V24.3699H76.637V29.709H85.1374V34.5563H76.637V45.8316H87.5962V50.9951H71.0872ZM91.1088 24.5455V19.382H112.781V24.5455H104.878V50.9951H99.0121V24.5455H91.1088ZM110.604 50.9951L124.373 18.2931H124.443L138.247 50.9951H132.452L129.747 44.4266H118.893L116.189 50.9951H110.604ZM120.825 39.79H127.815L126.164 35.8208C125.813 34.9778 125.485 34.1582 125.181 33.362C124.876 32.5424 124.584 31.594 124.303 30.5169C124.022 31.594 123.729 32.5307 123.424 33.3269C123.143 34.1231 122.827 34.9544 122.476 35.8208L120.825 39.79ZM152.952 51.4869C151.594 51.4869 150.329 51.241 149.158 50.7492C148.011 50.2575 147.016 49.5901 146.173 48.7471V50.9951H141.36V17.2745H146.875V31.5355C147.695 30.8798 148.608 30.3646 149.615 29.99C150.645 29.6153 151.758 29.428 152.952 29.428C154.919 29.428 156.699 29.9314 158.291 30.9384C159.883 31.9219 161.148 33.2449 162.085 34.9076C163.045 36.5702 163.525 38.4201 163.525 40.4574C163.525 42.4713 163.045 44.3212 162.085 46.0073C161.148 47.6699 159.883 49.0047 158.291 50.0116C156.699 50.9951 154.919 51.4869 152.952 51.4869ZM152.285 46.6044C153.409 46.6044 154.415 46.3234 155.305 45.7614C156.219 45.1994 156.945 44.4617 157.483 43.5485C158.022 42.6118 158.291 41.5814 158.291 40.4574C158.291 39.3334 158.022 38.3148 157.483 37.4015C156.945 36.4648 156.219 35.7155 155.305 35.1534C154.415 34.5914 153.42 34.3104 152.32 34.3104C151.196 34.3104 150.177 34.5914 149.264 35.1534C148.374 35.7155 147.66 36.4648 147.121 37.4015C146.582 38.3148 146.313 39.3334 146.313 40.4574C146.313 41.5814 146.582 42.6118 147.121 43.5485C147.66 44.4617 148.374 45.1994 149.264 45.7614C150.177 46.3234 151.184 46.6044 152.285 46.6044ZM167.575 50.9951V17.2745H173.09V50.9951H167.575ZM188.986 51.6274C186.668 51.6274 184.607 51.1356 182.804 50.1521C181.025 49.1686 179.631 47.8221 178.624 46.1126C177.641 44.3798 177.149 42.4245 177.149 40.2467C177.149 38.1625 177.629 36.3009 178.589 34.6617C179.573 32.9991 180.896 31.6877 182.558 30.7276C184.221 29.7675 186.059 29.2875 188.073 29.2875C190.134 29.2875 191.972 29.7675 193.588 30.7276C195.227 31.6643 196.527 32.9405 197.487 34.5563C198.447 36.1721 198.927 38.0103 198.927 40.071V42.0732H185.825C185.24 42.0732 184.666 42.0381 184.104 41.9678C183.542 41.8976 182.98 41.8156 182.418 41.7219C182.699 43.2441 183.437 44.4969 184.631 45.4804C185.825 46.4639 187.324 46.9557 189.127 46.9557C190.462 46.9557 191.668 46.6747 192.745 46.1126C193.822 45.5506 194.712 44.8481 195.414 44.0051L196.679 49.1686C195.625 49.9882 194.443 50.597 193.131 50.9951C191.82 51.4166 190.438 51.6274 188.986 51.6274ZM182.277 38.3148C183.472 38.0806 184.654 37.9635 185.825 37.9635H190.356C190.989 37.9635 191.586 37.9869 192.148 38.0337C192.71 38.0806 193.248 38.1508 193.764 38.2445C193.412 36.8863 192.721 35.7974 191.691 34.9778C190.684 34.1582 189.466 33.7484 188.038 33.7484C186.633 33.7484 185.415 34.1699 184.385 35.0129C183.355 35.856 182.652 36.9566 182.277 38.3148ZM200.602 50.9951L214.371 18.2931H214.442L228.246 50.9951H222.45L219.746 44.4266H208.892L206.187 50.9951H200.602ZM210.824 39.79H217.814L216.163 35.8208C215.811 34.9778 215.484 34.1582 215.179 33.362C214.875 32.5424 214.582 31.594 214.301 30.5169C214.02 31.594 213.727 32.5307 213.423 33.3269C213.142 34.1231 212.826 34.9544 212.475 35.8208L210.824 39.79ZM231.394 50.9951V17.2745H236.909V50.9951H231.394Z" fill="white"/>
<path d="M71.0872 50.9951V19.382H87.5962V24.3699H76.637V29.709H85.1374V34.5563H76.637V45.8316H87.5962V50.9951H71.0872ZM91.1088 24.5455V19.382H112.781V24.5455H104.878V50.9951H99.0121V24.5455H91.1088ZM110.604 50.9951L124.373 18.2931H124.443L138.247 50.9951H132.452L129.747 44.4266H118.893L116.189 50.9951H110.604ZM120.825 39.79H127.815L126.164 35.8208C125.813 34.9778 125.485 34.1582 125.181 33.362C124.876 32.5424 124.584 31.594 124.303 30.5169C124.022 31.594 123.729 32.5307 123.424 33.3269C123.143 34.1231 122.827 34.9544 122.476 35.8208L120.825 39.79ZM152.952 51.4869C151.594 51.4869 150.329 51.241 149.158 50.7492C148.011 50.2575 147.016 49.5901 146.173 48.7471V50.9951H141.36V17.2745H146.875V31.5355C147.695 30.8798 148.608 30.3646 149.615 29.99C150.645 29.6153 151.758 29.428 152.952 29.428C154.919 29.428 156.699 29.9314 158.291 30.9384C159.883 31.9219 161.148 33.2449 162.085 34.9076C163.045 36.5702 163.525 38.4201 163.525 40.4574C163.525 42.4713 163.045 44.3212 162.085 46.0073C161.148 47.6699 159.883 49.0047 158.291 50.0116C156.699 50.9951 154.919 51.4869 152.952 51.4869ZM152.285 46.6044C153.409 46.6044 154.415 46.3234 155.305 45.7614C156.219 45.1994 156.945 44.4617 157.483 43.5485C158.022 42.6118 158.291 41.5814 158.291 40.4574C158.291 39.3334 158.022 38.3148 157.483 37.4015C156.945 36.4648 156.219 35.7155 155.305 35.1534C154.415 34.5914 153.42 34.3104 152.32 34.3104C151.196 34.3104 150.177 34.5914 149.264 35.1534C148.374 35.7155 147.66 36.4648 147.121 37.4015C146.582 38.3148 146.313 39.3334 146.313 40.4574C146.313 41.5814 146.582 42.6118 147.121 43.5485C147.66 44.4617 148.374 45.1994 149.264 45.7614C150.177 46.3234 151.184 46.6044 152.285 46.6044ZM167.575 50.9951V17.2745H173.09V50.9951H167.575ZM188.986 51.6274C186.668 51.6274 184.607 51.1356 182.804 50.1521C181.025 49.1686 179.631 47.8221 178.624 46.1126C177.641 44.3798 177.149 42.4245 177.149 40.2467C177.149 38.1625 177.629 36.3009 178.589 34.6617C179.573 32.9991 180.896 31.6877 182.558 30.7276C184.221 29.7675 186.059 29.2875 188.073 29.2875C190.134 29.2875 191.972 29.7675 193.588 30.7276C195.227 31.6643 196.527 32.9405 197.487 34.5563C198.447 36.1721 198.927 38.0103 198.927 40.071V42.0732H185.825C185.24 42.0732 184.666 42.0381 184.104 41.9678C183.542 41.8976 182.98 41.8156 182.418 41.7219C182.699 43.2441 183.437 44.4969 184.631 45.4804C185.825 46.4639 187.324 46.9557 189.127 46.9557C190.462 46.9557 191.668 46.6747 192.745 46.1126C193.822 45.5506 194.712 44.8481 195.414 44.0051L196.679 49.1686C195.625 49.9882 194.443 50.597 193.131 50.9951C191.82 51.4166 190.438 51.6274 188.986 51.6274ZM182.277 38.3148C183.472 38.0806 184.654 37.9635 185.825 37.9635H190.356C190.989 37.9635 191.586 37.9869 192.148 38.0337C192.71 38.0806 193.248 38.1508 193.764 38.2445C193.412 36.8863 192.721 35.7974 191.691 34.9778C190.684 34.1582 189.466 33.7484 188.038 33.7484C186.633 33.7484 185.415 34.1699 184.385 35.0129C183.355 35.856 182.652 36.9566 182.277 38.3148ZM200.602 50.9951L214.371 18.2931H214.442L228.246 50.9951H222.45L219.746 44.4266H208.892L206.187 50.9951H200.602ZM210.824 39.79H217.814L216.163 35.8208C215.811 34.9778 215.484 34.1582 215.179 33.362C214.875 32.5424 214.582 31.594 214.301 30.5169C214.02 31.594 213.727 32.5307 213.423 33.3269C213.142 34.1231 212.826 34.9544 212.475 35.8208L210.824 39.79ZM231.394 50.9951V17.2745H236.909V50.9951H231.394Z" fill="url(#paint0_linear_488_202)"/>
<path d="M28.0432 0C12.5554 0 0 12.5554 0 28.0432C0 35.1596 2.65069 41.6568 7.01859 46.6014L28.0432 70L49.1329 46.5275C53.3355 41.2596 56.0865 35.1242 56.0865 28.0432C56.0865 12.5554 43.5311 0 28.0432 0Z" fill="url(#paint1_linear_488_202)"/>
<path d="M28.0432 0C12.5554 0 0 12.5554 0 28.0432C0 35.1596 2.65069 41.6568 7.01859 46.6014L28.0432 70L49.1329 46.5275C53.3355 41.2596 56.0865 35.1242 56.0865 28.0432C56.0865 12.5554 43.5311 0 28.0432 0Z" fill="url(#paint2_linear_488_202)"/>
<path d="M28.0435 1.05664C42.9714 1.05684 55.0728 13.1589 55.0728 28.0869C55.0727 34.9092 52.4226 40.8234 48.3677 45.9062L28.0425 68.5273L7.77783 45.9736C3.56803 41.2078 1.01327 34.9458 1.01318 28.0869C1.01318 13.1588 13.1153 1.05664 28.0435 1.05664Z" fill="#D9D9D9"/>
<path d="M28.0435 1.05664C42.9714 1.05684 55.0728 13.1589 55.0728 28.0869C55.0727 34.9092 52.4226 40.8234 48.3677 45.9062L28.0425 68.5273L7.77783 45.9736C3.56803 41.2078 1.01327 34.9458 1.01318 28.0869C1.01318 13.1588 13.1153 1.05664 28.0435 1.05664Z" fill="url(#paint3_linear_488_202)"/>
<path d="M28.0435 1.05664C42.9714 1.05684 55.0728 13.1589 55.0728 28.0869C55.0727 34.9092 52.4226 40.8234 48.3677 45.9062L28.0425 68.5273L7.77783 45.9736C3.56803 41.2078 1.01327 34.9458 1.01318 28.0869C1.01318 13.1588 13.1153 1.05664 28.0435 1.05664Z" fill="url(#paint4_linear_488_202)"/>
<path d="M28.0435 1.05664C42.9714 1.05684 55.0728 13.1589 55.0728 28.0869C55.0727 34.9092 52.4226 40.8234 48.3677 45.9062L28.0425 68.5273L7.77783 45.9736C3.56803 41.2078 1.01327 34.9458 1.01318 28.0869C1.01318 13.1588 13.1153 1.05664 28.0435 1.05664Z" stroke="url(#paint5_linear_488_202)" stroke-width="0.195643"/>
<path d="M28.0437 3.76257C41.7906 3.76279 52.9343 14.9072 52.9343 28.6542C52.9342 34.9416 50.4911 40.3872 46.7654 45.0575L46.7625 45.0614L46.6892 44.996L46.7615 45.0614L28.116 65.8143L28.0437 65.8944L27.9705 65.8143L9.38257 45.1268L9.38159 45.1259C5.50487 40.7371 3.1522 34.9703 3.1521 28.6542C3.1521 14.9071 14.2966 3.76257 28.0437 3.76257Z" fill="#562400"/>
<path d="M28.0437 3.76257C41.7906 3.76279 52.9343 14.9072 52.9343 28.6542C52.9342 34.9416 50.4911 40.3872 46.7654 45.0575L46.7625 45.0614L46.6892 44.996L46.7615 45.0614L28.116 65.8143L28.0437 65.8944L27.9705 65.8143L9.38257 45.1268L9.38159 45.1259C5.50487 40.7371 3.1522 34.9703 3.1521 28.6542C3.1521 14.9071 14.2966 3.76257 28.0437 3.76257Z" fill="url(#paint6_linear_488_202)"/>
<path d="M28.0437 3.76257C41.7906 3.76279 52.9343 14.9072 52.9343 28.6542C52.9342 34.9416 50.4911 40.3872 46.7654 45.0575L46.7625 45.0614L46.6892 44.996L46.7615 45.0614L28.116 65.8143L28.0437 65.8944L27.9705 65.8143L9.38257 45.1268L9.38159 45.1259C5.50487 40.7371 3.1522 34.9703 3.1521 28.6542C3.1521 14.9071 14.2966 3.76257 28.0437 3.76257Z" stroke="url(#paint7_linear_488_202)" stroke-width="0.195643"/>
<g filter="url(#filter0_i_488_202)">
<path d="M28.0433 4.54407C14.6854 4.54407 3.85669 15.3728 3.85669 28.7307C3.85669 34.8683 6.14284 40.472 9.91005 44.7367L28.0433 64.9173L46.2327 44.6729C49.8572 40.1295 52.2299 34.8378 52.2299 28.7307C52.2299 15.3728 41.4012 4.54407 28.0433 4.54407Z" fill="url(#paint8_linear_488_202)"/>
</g>
<g filter="url(#filter1_d_488_202)">
<path d="M14.3427 37.0337L9.01931 31.8062C8.94692 31.7357 8.89801 31.6438 8.87649 31.5459L7.99414 27.4335L16.0644 35.2573C16.2698 35.4549 16.2737 35.7816 16.0761 35.987L15.0764 37.0239C14.8769 37.2313 14.5482 37.2352 14.3427 37.0337Z" fill="url(#paint9_linear_488_202)"/>
<path d="M14.419 36.5794L9.38709 31.5396C9.34405 31.4966 9.31275 31.4399 9.2971 31.3812L8.48714 28.1824C8.48127 28.1589 8.50866 28.1433 8.52627 28.1609L15.859 35.2079C16.0018 35.3449 15.9998 35.5757 15.8531 35.7107L14.8964 36.5911C14.7614 36.7163 14.5501 36.7124 14.419 36.5813V36.5794Z" fill="url(#paint10_linear_488_202)"/>
<path d="M14.419 36.5794L9.38709 31.5396C9.34405 31.4966 9.31275 31.4399 9.2971 31.3812L8.48714 28.1824C8.48127 28.1589 8.50866 28.1433 8.52627 28.1609L15.859 35.2079C16.0018 35.3449 15.9998 35.5757 15.8531 35.7107L14.8964 36.5911C14.7614 36.7163 14.5501 36.7124 14.419 36.5813V36.5794Z" fill="url(#paint11_linear_488_202)"/>
<path d="M14.419 36.5794L9.38709 31.5396C9.34405 31.4966 9.31275 31.4399 9.2971 31.3812L8.48714 28.1824C8.48127 28.1589 8.50866 28.1433 8.52627 28.1609L15.859 35.2079C16.0018 35.3449 15.9998 35.5757 15.8531 35.7107L14.8964 36.5911C14.7614 36.7163 14.5501 36.7124 14.419 36.5813V36.5794Z" stroke="url(#paint12_linear_488_202)" stroke-width="0.0978214" stroke-miterlimit="10"/>
<path d="M18.9342 32.0799L13.6578 26.9854C13.5912 26.9208 13.5521 26.8308 13.5521 26.7369V25.3302C13.5521 25.2285 13.5971 25.1307 13.6754 25.0661C14.9451 23.996 15.7844 23.2897 15.7844 22.155C15.7844 21.0789 15.129 19.2477 12.6698 19.1968C11.76 19.1831 11.042 19.4238 10.5294 19.9266C9.8075 20.6329 9.7312 21.6248 9.7312 22.018C9.7312 22.2723 9.74881 22.5032 9.78207 22.7086C9.8388 23.0569 10.0051 23.3836 10.2614 23.6516L11.4998 24.9429C11.5624 25.0074 11.5957 25.0916 11.5957 25.1816V27.2123C11.5957 27.406 11.67 27.5899 11.807 27.7288L17.4924 33.514C17.6352 33.6607 17.8269 33.7331 18.0186 33.7331C18.2104 33.7331 18.3864 33.6646 18.5273 33.5296L18.9323 33.1423C19.079 33.0034 19.1592 32.8136 19.1592 32.6121C19.1592 32.4106 19.079 32.2208 18.9342 32.0799ZM14.0334 22.1237C14.0334 22.8436 13.4484 23.4286 12.7284 23.4286C12.0085 23.4286 11.4235 22.8436 11.4235 22.1237C11.4235 21.4037 12.0085 20.8187 12.7284 20.8187C13.4484 20.8187 14.0334 21.4037 14.0334 22.1237Z" fill="url(#paint13_linear_488_202)"/>
<path d="M18.995 32.0255L13.7185 26.931C13.6128 26.8293 13.5541 26.6884 13.5541 26.5417V25.135C13.5541 24.9746 13.6246 24.8239 13.7478 24.7202C15.0743 23.6031 15.7864 22.9712 15.7864 21.9597C15.7864 20.9482 15.1428 19.2442 12.8635 19.1972C10.5843 19.1503 10.1245 20.8543 10.1245 21.8208C10.1245 22.0888 10.1441 22.306 10.1715 22.4801C10.2223 22.7971 10.3769 23.0886 10.5999 23.3194L11.8383 24.6107C11.9342 24.7105 11.989 24.8454 11.989 24.9844V27.0151C11.989 27.156 12.0438 27.2929 12.1435 27.3947L17.8289 33.1798C18.0363 33.3911 18.3748 33.397 18.588 33.1916L18.993 32.8042C19.2141 32.591 19.216 32.2368 18.993 32.0236L18.995 32.0255ZM11.4255 21.9284C11.4255 21.0989 12.0966 20.4278 12.9261 20.4278C13.7556 20.4278 14.4267 21.0989 14.4267 21.9284C14.4267 22.7579 13.7556 23.429 12.9261 23.429C12.0966 23.429 11.4255 22.7579 11.4255 21.9284Z" fill="url(#paint14_linear_488_202)"/>
<path d="M18.995 32.0255L13.7185 26.931C13.6128 26.8293 13.5541 26.6884 13.5541 26.5417V25.135C13.5541 24.9746 13.6246 24.8239 13.7478 24.7202C15.0743 23.6031 15.7864 22.9712 15.7864 21.9597C15.7864 20.9482 15.1428 19.2442 12.8635 19.1972C10.5843 19.1503 10.1245 20.8543 10.1245 21.8208C10.1245 22.0888 10.1441 22.306 10.1715 22.4801C10.2223 22.7971 10.3769 23.0886 10.5999 23.3194L11.8383 24.6107C11.9342 24.7105 11.989 24.8454 11.989 24.9844V27.0151C11.989 27.156 12.0438 27.2929 12.1435 27.3947L17.8289 33.1798C18.0363 33.3911 18.3748 33.397 18.588 33.1916L18.993 32.8042C19.2141 32.591 19.216 32.2368 18.993 32.0236L18.995 32.0255ZM11.4255 21.9284C11.4255 21.0989 12.0966 20.4278 12.9261 20.4278C13.7556 20.4278 14.4267 21.0989 14.4267 21.9284C14.4267 22.7579 13.7556 23.429 12.9261 23.429C12.0966 23.429 11.4255 22.7579 11.4255 21.9284Z" fill="url(#paint15_linear_488_202)"/>
<path d="M18.995 32.0255L13.7185 26.931C13.6128 26.8293 13.5541 26.6884 13.5541 26.5417V25.135C13.5541 24.9746 13.6246 24.8239 13.7478 24.7202C15.0743 23.6031 15.7864 22.9712 15.7864 21.9597C15.7864 20.9482 15.1428 19.2442 12.8635 19.1972C10.5843 19.1503 10.1245 20.8543 10.1245 21.8208C10.1245 22.0888 10.1441 22.306 10.1715 22.4801C10.2223 22.7971 10.3769 23.0886 10.5999 23.3194L11.8383 24.6107C11.9342 24.7105 11.989 24.8454 11.989 24.9844V27.0151C11.989 27.156 12.0438 27.2929 12.1435 27.3947L17.8289 33.1798C18.0363 33.3911 18.3748 33.397 18.588 33.1916L18.993 32.8042C19.2141 32.591 19.216 32.2368 18.993 32.0236L18.995 32.0255ZM11.4255 21.9284C11.4255 21.0989 12.0966 20.4278 12.9261 20.4278C13.7556 20.4278 14.4267 21.0989 14.4267 21.9284C14.4267 22.7579 13.7556 23.429 12.9261 23.429C12.0966 23.429 11.4255 22.7579 11.4255 21.9284Z" stroke="url(#paint16_linear_488_202)" stroke-width="0.0978214" stroke-miterlimit="10"/>
<path d="M23.4949 26.6939C22.7143 25.9661 20.6835 24.0605 20.484 23.8433C20.347 23.6927 20.257 23.5264 20.214 23.4384C20.2003 23.409 20.1925 23.3758 20.1925 23.3405V19.3886C20.1925 19.2164 20.2551 18.6138 21.0553 18.0934C22.1645 17.3734 22.9999 16.002 22.9999 14.9064C22.9999 13.7188 21.8691 11.3907 19.2534 11.3907C16.6376 11.3907 15.3699 13.2493 15.3699 15.0903C15.3699 17.1172 16.9155 18.0347 17.4241 18.334C17.8917 18.6099 17.923 19.0227 17.925 19.0227C17.925 19.2086 17.9015 23.5714 17.925 23.9451C17.9504 24.352 18.1167 24.5496 18.1969 24.6201C18.868 25.3557 20.9183 27.6075 21.2509 27.9499C21.3115 28.1534 21.3409 29.0005 21.3311 29.7029C21.3311 30.0844 21.5581 30.1978 21.6559 30.2291C21.6989 30.2428 21.7459 30.2507 21.7948 30.2507C22.4639 30.2507 23.5125 28.977 23.7747 28.6092C24.389 27.7445 23.8686 26.9854 23.4949 26.6958V26.6939ZM20.5388 15.1099C20.5388 15.9042 19.8931 16.5498 19.0988 16.5498C18.3045 16.5498 17.6589 15.9042 17.6589 15.1099C17.6589 14.3155 18.3045 13.6699 19.0988 13.6699C19.8931 13.6699 20.5388 14.3155 20.5388 15.1099Z" fill="#613202"/>
<path d="M23.5007 26.8744C23.5007 26.8744 20.7147 24.2743 20.4624 23.9965C20.3058 23.8243 20.2022 23.6384 20.1454 23.521C20.1122 23.4506 20.0946 23.3743 20.0946 23.2941V19.3421C20.0946 19.1113 20.1709 18.3991 21.0923 17.8004C22.1292 17.1274 22.904 15.8245 22.904 14.858C22.904 13.8915 21.914 11.6357 19.4509 11.6357C16.9877 11.6357 15.8608 13.2694 15.8608 15.0419C15.8608 16.8144 17.1501 17.6655 17.7703 18.0333C18.3925 18.4011 18.414 18.9763 18.414 18.9763C18.414 18.9763 18.3905 23.5113 18.414 23.8791C18.4375 24.2469 18.5979 24.3623 18.5979 24.3623C18.5979 24.3623 21.5521 27.6061 21.6812 27.7235C21.8456 27.8702 21.8201 29.6564 21.8201 29.6564C21.8201 30.4331 23.1094 29.2651 23.7296 28.3906C24.3517 27.5161 23.4987 26.8724 23.4987 26.8724L23.5007 26.8744ZM17.5629 15.0673C17.5629 14.1106 18.3396 13.3339 19.2963 13.3339C20.253 13.3339 21.0297 14.1106 21.0297 15.0673C21.0297 16.024 20.253 16.8007 19.2963 16.8007C18.3396 16.8007 17.5629 16.024 17.5629 15.0673Z" fill="url(#paint17_linear_488_202)"/>
<path d="M23.5007 26.8744C23.5007 26.8744 20.7147 24.2743 20.4624 23.9965C20.3058 23.8243 20.2022 23.6384 20.1454 23.521C20.1122 23.4506 20.0946 23.3743 20.0946 23.2941V19.3421C20.0946 19.1113 20.1709 18.3991 21.0923 17.8004C22.1292 17.1274 22.904 15.8245 22.904 14.858C22.904 13.8915 21.914 11.6357 19.4509 11.6357C16.9877 11.6357 15.8608 13.2694 15.8608 15.0419C15.8608 16.8144 17.1501 17.6655 17.7703 18.0333C18.3925 18.4011 18.414 18.9763 18.414 18.9763C18.414 18.9763 18.3905 23.5113 18.414 23.8791C18.4375 24.2469 18.5979 24.3623 18.5979 24.3623C18.5979 24.3623 21.5521 27.6061 21.6812 27.7235C21.8456 27.8702 21.8201 29.6564 21.8201 29.6564C21.8201 30.4331 23.1094 29.2651 23.7296 28.3906C24.3517 27.5161 23.4987 26.8724 23.4987 26.8724L23.5007 26.8744ZM17.5629 15.0673C17.5629 14.1106 18.3396 13.3339 19.2963 13.3339C20.253 13.3339 21.0297 14.1106 21.0297 15.0673C21.0297 16.024 20.253 16.8007 19.2963 16.8007C18.3396 16.8007 17.5629 16.024 17.5629 15.0673Z" fill="url(#paint18_linear_488_202)"/>
<path d="M23.5007 26.8744C23.5007 26.8744 20.7147 24.2743 20.4624 23.9965C20.3058 23.8243 20.2022 23.6384 20.1454 23.521C20.1122 23.4506 20.0946 23.3743 20.0946 23.2941V19.3421C20.0946 19.1113 20.1709 18.3991 21.0923 17.8004C22.1292 17.1274 22.904 15.8245 22.904 14.858C22.904 13.8915 21.914 11.6357 19.4509 11.6357C16.9877 11.6357 15.8608 13.2694 15.8608 15.0419C15.8608 16.8144 17.1501 17.6655 17.7703 18.0333C18.3925 18.4011 18.414 18.9763 18.414 18.9763C18.414 18.9763 18.3905 23.5113 18.414 23.8791C18.4375 24.2469 18.5979 24.3623 18.5979 24.3623C18.5979 24.3623 21.5521 27.6061 21.6812 27.7235C21.8456 27.8702 21.8201 29.6564 21.8201 29.6564C21.8201 30.4331 23.1094 29.2651 23.7296 28.3906C24.3517 27.5161 23.4987 26.8724 23.4987 26.8724L23.5007 26.8744ZM17.5629 15.0673C17.5629 14.1106 18.3396 13.3339 19.2963 13.3339C20.253 13.3339 21.0297 14.1106 21.0297 15.0673C21.0297 16.024 20.253 16.8007 19.2963 16.8007C18.3396 16.8007 17.5629 16.024 17.5629 15.0673Z" stroke="url(#paint19_linear_488_202)" stroke-width="0.0978214" stroke-miterlimit="10"/>
<path d="M46.4984 16.9663C46.4652 16.8567 46.3947 16.7628 46.3008 16.7041C46.1678 16.6024 46.0093 16.5496 45.845 16.5496C45.4322 16.5496 45.1035 16.8782 45.0096 16.9819C41.6915 20.0574 36.6439 24.7137 36.2957 24.9622C36.2526 24.9916 36.2057 25.0248 36.1587 25.0581C35.92 25.2283 35.65 25.422 35.4368 25.422C35.3801 25.422 35.292 25.4102 35.1766 25.3046C34.9105 25.062 35.0807 24.7392 35.1492 24.6355C35.7107 24.0681 42.6814 17.0152 43.1021 16.5789C43.1921 16.485 43.3036 16.3833 43.421 16.2737C43.8944 15.8374 44.544 15.2407 44.0607 14.6988C43.9159 14.5364 43.7281 14.4523 43.5188 14.4523C43.1412 14.4523 42.8301 14.7399 42.7538 14.8181C42.3156 15.227 34.1103 22.8747 33.7269 23.2934C33.4843 23.5575 33.2847 23.6925 33.1341 23.6925C33.0402 23.6925 32.9365 23.6357 32.823 23.5242C32.5452 23.2464 32.9756 22.638 33.048 22.5421C33.273 22.321 35.4211 20.2022 37.5184 18.0814C38.8155 16.7706 39.8388 15.7161 40.5626 14.9453C40.995 14.4836 41.3256 14.1197 41.5428 13.8614C41.8382 13.5112 42.118 13.1806 41.848 12.8832C41.7091 12.7287 41.5213 12.6445 41.3217 12.6445C41.04 12.6445 40.8228 12.8089 40.7837 12.8421L40.7778 12.848L40.772 12.8539C40.3689 13.2119 30.8861 21.6343 29.5108 23.1995C28.376 24.4888 28.4093 25.1422 28.5952 26.0656C28.6343 26.2593 28.6754 26.4589 28.6969 26.6819C28.781 27.529 28.4934 27.8499 28.4484 27.8929L28.423 27.9105L28.4191 27.9203L15.4773 40.6723L15.4538 40.6958L15.4343 40.7232C15.1232 41.1595 14.9589 42.0281 15.7766 42.6405C16.0623 42.8537 16.3773 42.9614 16.7099 42.9614C17.3496 42.9614 17.8133 42.5583 17.8641 42.5114C18.3337 42.0692 29.231 31.7999 30.3305 30.6495C30.9233 30.0294 31.2461 29.9022 31.5494 29.9022C31.8174 29.9022 32.1343 30.002 32.5726 30.1409L32.7076 30.1839C32.9384 30.2563 33.1791 30.2935 33.4275 30.2935C34.5134 30.2935 35.384 29.5911 35.4211 29.5618L35.4387 29.5481L35.4544 29.5324L38.0447 26.856L38.0486 26.8521L38.0525 26.8482C38.3519 26.5195 45.3833 18.8092 46.0015 18.0873C46.4397 17.5767 46.5845 17.2539 46.5004 16.9741L46.4984 16.9663Z" fill="#613202"/>
<path d="M15.9469 40.9445L28.8887 28.1925C28.8887 28.1925 29.3954 27.7973 29.28 26.6372C29.1645 25.477 28.6207 25.0172 29.998 23.4521C31.3753 21.887 41.2259 13.1398 41.2259 13.1398C41.2259 13.1398 41.5311 12.8933 41.7561 13.1398C41.9811 13.3863 32.9522 22.2782 32.9522 22.2782C32.9522 22.2782 32.1755 23.2271 32.7448 23.7964C33.3141 24.3658 33.8326 23.9686 34.2121 23.5538C34.5917 23.1391 43.2234 15.0942 43.2234 15.0942C43.2234 15.0942 43.6715 14.6286 43.9649 14.9553C44.2584 15.2821 43.4465 15.8533 43.0161 16.3014C42.5856 16.7494 35.0417 24.3795 35.0417 24.3795C35.0417 24.3795 34.5408 25.0701 35.1101 25.5885C35.6795 26.107 36.2664 25.5885 36.7164 25.2775C37.1663 24.9664 45.4851 17.2502 45.4851 17.2502C45.4851 17.2502 45.9331 16.7318 46.2794 17.0252C46.2794 17.0252 46.522 17.0937 45.8998 17.8195C45.2777 18.5454 37.9587 26.5726 37.9587 26.5726L35.3684 29.249C35.3684 29.249 34.2297 30.1803 33.0207 29.8007C31.8116 29.4212 31.346 29.2138 30.2406 30.37C29.1352 31.5263 17.7938 42.2123 17.7938 42.2123C17.7938 42.2123 17.0132 42.9205 16.2032 42.316C15.3932 41.7115 15.945 40.9406 15.945 40.9406L15.9469 40.9445Z" fill="url(#paint20_linear_488_202)" stroke="url(#paint21_linear_488_202)" stroke-width="0.195643" stroke-miterlimit="10"/>
<path d="M47.5725 23.3132L47.4336 22.7908L47.0717 23.1919L45.1035 25.3674L44.9725 25.5122L45.0566 25.6903C45.0624 25.704 45.7355 27.1674 45.5359 29.4936C45.352 31.6437 44.362 34.995 40.6996 38.7475C37.8647 41.281 34.398 42.5645 30.3912 42.5645C26.5977 42.5645 23.7022 41.371 23.6728 41.3573L23.4987 41.2849L23.3598 41.4141L21.9336 42.7405L21.6694 42.9851L21.9609 43.1944C23.2052 44.0846 26.404 45.591 30.5027 45.591C34.2884 45.591 37.9606 44.335 41.4176 41.8562C46.2324 38.4031 47.6508 33.5414 47.9912 30.0727C48.359 26.3261 47.6058 23.4345 47.5725 23.3132Z" fill="#613202"/>
<path d="M22.1313 42.7577L23.5576 41.4312C23.5576 41.4312 33.3397 45.528 40.9013 38.7607C48.1518 31.338 45.3209 25.365 45.3209 25.365L47.2891 23.1895C47.2891 23.1895 50.3959 34.8595 41.2476 41.4195C32.0994 47.9794 23.9039 44.0254 22.1313 42.7577Z" fill="url(#paint22_linear_488_202)"/>
<path d="M22.1313 42.7577L23.5576 41.4312C23.5576 41.4312 33.3397 45.528 40.9013 38.7607C48.1518 31.338 45.3209 25.365 45.3209 25.365L47.2891 23.1895C47.2891 23.1895 50.3959 34.8595 41.2476 41.4195C32.0994 47.9794 23.9039 44.0254 22.1313 42.7577Z" fill="url(#paint23_linear_488_202)"/>
<path d="M22.1313 42.7577L23.5576 41.4312C23.5576 41.4312 33.3397 45.528 40.9013 38.7607C48.1518 31.338 45.3209 25.365 45.3209 25.365L47.2891 23.1895C47.2891 23.1895 50.3959 34.8595 41.2476 41.4195C32.0994 47.9794 23.9039 44.0254 22.1313 42.7577Z" stroke="url(#paint24_linear_488_202)" stroke-width="0.195643" stroke-miterlimit="10"/>
<path d="M33.3103 11.5433C32.5688 11.4161 31.7862 11.3516 30.9861 11.3516C28.3468 11.3516 26.3454 12.0324 26.2613 12.0617L25.9365 12.1733L26.0989 12.4765L27.0204 14.2021L27.126 14.3997L27.3432 14.3508C28.2216 14.1532 29.0805 14.0534 29.8905 14.0534C30.7004 14.0534 31.123 14.1493 31.1289 14.1512L31.2834 14.1845L31.3969 14.073L33.4688 12.0402L33.8777 11.6392L33.3123 11.5433H33.3103Z" fill="#613202"/>
<path d="M27.2745 13.8695L26.353 12.1439C26.353 12.1439 29.6222 11.0151 33.2573 11.6372L31.1854 13.67C31.1854 13.67 29.6692 13.3334 27.2745 13.8695Z" fill="url(#paint25_linear_488_202)"/>
<path d="M27.2745 13.8695L26.353 12.1439C26.353 12.1439 29.6222 11.0151 33.2573 11.6372L31.1854 13.67C31.1854 13.67 29.6692 13.3334 27.2745 13.8695Z" fill="url(#paint26_linear_488_202)"/>
<path d="M27.2745 13.8695L26.353 12.1439C26.353 12.1439 29.6222 11.0151 33.2573 11.6372L31.1854 13.67C31.1854 13.67 29.6692 13.3334 27.2745 13.8695Z" stroke="url(#paint27_linear_488_202)" stroke-width="0.146732" stroke-miterlimit="10"/>
</g>
<defs>
<filter id="filter0_i_488_202" x="2.87848" y="4.54407" width="49.3515" height="61.1559" filterUnits="userSpaceOnUse" color-interpolation-filters="sRGB">
<feFlood flood-opacity="0" result="BackgroundImageFix"/>
<feBlend mode="normal" in="SourceGraphic" in2="BackgroundImageFix" result="shape"/>
<feColorMatrix in="SourceAlpha" type="matrix" values="0 0 0 0 0 0 0 0 0 0 0 0 0 0 0 0 0 0 127 0" result="hardAlpha"/>
<feOffset dx="-0.978214" dy="0.782571"/>
<feGaussianBlur stdDeviation="2.34771"/>
<feComposite in2="hardAlpha" operator="arithmetic" k2="-1" k3="1"/>
<feColorMatrix type="matrix" values="0 0 0 0 0 0 0 0 0 0 0 0 0 0 0 0 0 0 1 0"/>
<feBlend mode="normal" in2="shape" result="effect1_innerShadow_488_202"/>
</filter>
<filter id="filter1_d_488_202" x="5.64643" y="9.98206" width="44.7933" height="38.9349" filterUnits="userSpaceOnUse" color-interpolation-filters="sRGB">
<feFlood flood-opacity="0" result="BackgroundImageFix"/>
<feColorMatrix in="SourceAlpha" type="matrix" values="0 0 0 0 0 0 0 0 0 0 0 0 0 0 0 0 0 0 127 0" result="hardAlpha"/>
<feOffset dy="0.978214"/>
<feGaussianBlur stdDeviation="1.17386"/>
<feComposite in2="hardAlpha" operator="out"/>
<feColorMatrix type="matrix" values="0 0 0 0 0 0 0 0 0 0 0 0 0 0 0 0 0 0 0.75 0"/>
<feBlend mode="normal" in2="BackgroundImageFix" result="effect1_dropShadow_488_202"/>
<feBlend mode="normal" in="SourceGraphic" in2="effect1_dropShadow_488_202" result="shape"/>
</filter>
<linearGradient id="paint0_linear_488_202" x1="156.117" y1="21.1153" x2="156.117" y2="50.9951" gradientUnits="userSpaceOnUse">
<stop stop-color="#FFEB5D"/>
<stop offset="1" stop-color="#BE7D08"/>
</linearGradient>
<linearGradient id="paint1_linear_488_202" x1="49.7108" y1="10.4911" x2="10.052" y2="51.8375" gradientUnits="userSpaceOnUse">
<stop stop-color="#F6B60E"/>
<stop offset="1" stop-color="#4F2700"/>
</linearGradient>
<linearGradient id="paint2_linear_488_202" x1="11.733" y1="53.6234" x2="45.1487" y2="5.76229" gradientUnits="userSpaceOnUse">
<stop stop-color="#613202"/>
<stop offset="1" stop-color="#F8D244"/>
</linearGradient>
<linearGradient id="paint3_linear_488_202" x1="49.0031" y1="11.1076" x2="11.3166" y2="49.138" gradientUnits="userSpaceOnUse">
<stop stop-color="#FFEB75"/>
<stop offset="1" stop-color="#B57303"/>
</linearGradient>
<linearGradient id="paint4_linear_488_202" x1="9.00521" y1="45.0008" x2="55.4996" y2="15.4176" gradientUnits="userSpaceOnUse">
<stop stop-color="#9E5D06"/>
<stop offset="1" stop-color="#FEE66D"/>
</linearGradient>
<linearGradient id="paint5_linear_488_202" x1="28.0431" y1="0.958984" x2="28.0431" y2="68.6733" gradientUnits="userSpaceOnUse">
<stop stop-color="#FFD340"/>
<stop offset="1" stop-color="#BA7914"/>
</linearGradient>
<linearGradient id="paint6_linear_488_202" x1="16.8921" y1="54.022" x2="54.3827" y2="17.472" gradientUnits="userSpaceOnUse">
<stop stop-color="#704E1E"/>
<stop offset="0.95" stop-color="#541701"/>
</linearGradient>
<linearGradient id="paint7_linear_488_202" x1="28.0433" y1="3.86023" x2="28.0433" y2="65.7485" gradientUnits="userSpaceOnUse">
<stop stop-color="#FFD340"/>
<stop offset="1" stop-color="#BA7914"/>
</linearGradient>
<linearGradient id="paint8_linear_488_202" x1="48.6578" y1="13.9964" x2="14.7321" y2="52.2741" gradientUnits="userSpaceOnUse">
<stop offset="0.0532163" stop-color="#2B2B2B"/>
<stop offset="0.452625" stop-color="#131314"/>
<stop offset="1"/>
</linearGradient>
<linearGradient id="paint9_linear_488_202" x1="10.2656" y1="33.9034" x2="14.7066" y2="28.402" gradientUnits="userSpaceOnUse">
<stop stop-color="#613202"/>
<stop offset="1" stop-color="#F8D244"/>
</linearGradient>
<linearGradient id="paint10_linear_488_202" x1="10.8662" y1="33.9128" x2="12.8011" y2="30.9918" gradientUnits="userSpaceOnUse">
<stop stop-color="#613202"/>
<stop offset="1" stop-color="#F8D244"/>
</linearGradient>
<linearGradient id="paint11_linear_488_202" x1="11.1755" y1="27.066" x2="10.5425" y2="37.1642" gradientUnits="userSpaceOnUse">
<stop stop-color="#FFEB5D"/>
<stop offset="1" stop-color="#BE7D08"/>
</linearGradient>
<linearGradient id="paint12_linear_488_202" x1="8.97633" y1="33.9047" x2="10.2251" y2="35.5999" gradientUnits="userSpaceOnUse">
<stop stop-color="#FFC900"/>
<stop offset="1" stop-color="#C0800B"/>
</linearGradient>
<linearGradient id="paint13_linear_488_202" x1="14.6027" y1="33.3712" x2="14.1879" y2="17.3754" gradientUnits="userSpaceOnUse">
<stop stop-color="#613202"/>
<stop offset="0.19" stop-color="#643503"/>
<stop offset="0.35" stop-color="#6D3F07"/>
<stop offset="0.5" stop-color="#7E500E"/>
<stop offset="0.64" stop-color="#956918"/>
<stop offset="0.77" stop-color="#B28825"/>
<stop offset="0.9" stop-color="#D6AE35"/>
<stop offset="1" stop-color="#F8D244"/>
</linearGradient>
<linearGradient id="paint14_linear_488_202" x1="13.0122" y1="29.1985" x2="17.8818" y2="21.8521" gradientUnits="userSpaceOnUse">
<stop stop-color="#613202"/>
<stop offset="1" stop-color="#F8D244"/>
</linearGradient>
<linearGradient id="paint15_linear_488_202" x1="14.642" y1="20.4013" x2="10.344" y2="30.4238" gradientUnits="userSpaceOnUse">
<stop stop-color="#FFEB5D"/>
<stop offset="1" stop-color="#BE7D08"/>
</linearGradient>
<linearGradient id="paint16_linear_488_202" x1="10.7165" y1="28.7351" x2="12.885" y2="30.8796" gradientUnits="userSpaceOnUse">
<stop stop-color="#FFC900"/>
<stop offset="1" stop-color="#C0800B"/>
</linearGradient>
<linearGradient id="paint17_linear_488_202" x1="20.1161" y1="29.4001" x2="19.5976" y2="9.40541" gradientUnits="userSpaceOnUse">
<stop stop-color="#613202"/>
<stop offset="0.19" stop-color="#643503"/>
<stop offset="0.35" stop-color="#6D3F07"/>
<stop offset="0.5" stop-color="#7E500E"/>
<stop offset="0.64" stop-color="#956918"/>
<stop offset="0.77" stop-color="#B28825"/>
<stop offset="0.9" stop-color="#D6AE35"/>
<stop offset="1" stop-color="#F8D244"/>
</linearGradient>
<linearGradient id="paint18_linear_488_202" x1="20.6386" y1="13.16" x2="12.2971" y2="20.1775" gradientUnits="userSpaceOnUse">
<stop stop-color="#FFEB5D"/>
<stop offset="1" stop-color="#BE7D08"/>
</linearGradient>
<linearGradient id="paint19_linear_488_202" x1="16.3913" y1="23.9592" x2="19.005" y2="25.7519" gradientUnits="userSpaceOnUse">
<stop stop-color="#FFC900"/>
<stop offset="1" stop-color="#C0800B"/>
</linearGradient>
<linearGradient id="paint20_linear_488_202" x1="42.2802" y1="15.3625" x2="16.7879" y2="40.5761" gradientUnits="userSpaceOnUse">
<stop stop-color="#FFEB5D"/>
<stop offset="1" stop-color="#BE7D08"/>
</linearGradient>
<linearGradient id="paint21_linear_488_202" x1="17.7641" y1="32.9431" x2="21.8305" y2="39.4597" gradientUnits="userSpaceOnUse">
<stop stop-color="#FFC900"/>
<stop offset="1" stop-color="#C0800B"/>
</linearGradient>
<linearGradient id="paint22_linear_488_202" x1="19.7915" y1="44.1135" x2="43.206" y2="33.0049" gradientUnits="userSpaceOnUse">
<stop stop-color="#613202"/>
<stop offset="0.19" stop-color="#643503"/>
<stop offset="0.35" stop-color="#6D3F07"/>
<stop offset="0.5" stop-color="#7E500E"/>
<stop offset="0.64" stop-color="#956918"/>
<stop offset="0.77" stop-color="#B28825"/>
<stop offset="0.9" stop-color="#D6AE35"/>
<stop offset="1" stop-color="#F8D244"/>
</linearGradient>
<linearGradient id="paint23_linear_488_202" x1="44.4" y1="24.9199" x2="25.6044" y2="45.9599" gradientUnits="userSpaceOnUse">
<stop stop-color="#FFEB5D"/>
<stop offset="1" stop-color="#BE7D08"/>
</linearGradient>
<linearGradient id="paint24_linear_488_202" x1="23.8131" y1="37.9639" x2="26.6534" y2="43.1157" gradientUnits="userSpaceOnUse">
<stop stop-color="#FFC900"/>
<stop offset="1" stop-color="#C0800B"/>
</linearGradient>
<linearGradient id="paint25_linear_488_202" x1="26.355" y1="12.6604" x2="33.2592" y2="12.6604" gradientUnits="userSpaceOnUse">
<stop stop-color="#613202"/>
<stop offset="0.14" stop-color="#643503"/>
<stop offset="0.25" stop-color="#6D3F07"/>
<stop offset="0.36" stop-color="#7E500E"/>
<stop offset="0.46" stop-color="#956918"/>
<stop offset="0.56" stop-color="#B28825"/>
<stop offset="0.65" stop-color="#D6AE35"/>
<stop offset="0.72" stop-color="#F8D244"/>
</linearGradient>
<linearGradient id="paint26_linear_488_202" x1="32.3434" y1="11.6412" x2="30.9931" y2="15.3234" gradientUnits="userSpaceOnUse">
<stop stop-color="#FFEB5D"/>
<stop offset="1" stop-color="#BE7D08"/>
</linearGradient>
<linearGradient id="paint27_linear_488_202" x1="26.8054" y1="13.0816" x2="26.9651" y2="13.7872" gradientUnits="userSpaceOnUse">
<stop stop-color="#FFC900"/>
<stop offset="1" stop-color="#C0800B"/>
</linearGradient>
</defs>
</svg>
